<svg width="176" height="161" viewBox="0 0 176 161" fill="none" xmlns="http://www.w3.org/2000/svg">
<path d="M104.115 120.372L105.009 119.872C105.059 119.962 104.791 120.111 104.115 120.372Z" fill="#FF9B4F"/>
<path d="M26.5625 57.3471C26.473 57.3971 26.3836 57.447 26.2442 57.4075C26.5625 57.3471 26.5625 57.3471 26.5625 57.3471Z" fill="#FF9B4F"/>
<path d="M12.063 86.4487C12.113 86.5382 12.0735 86.6776 12.1234 86.767C12.0735 86.6776 12.113 86.5382 12.063 86.4487Z" fill="#FF9B4F"/>
<path d="M125.091 24.0478C127.548 23.6147 130.384 23.4395 132.883 23.9219C132.397 24.3111 133.691 24.5273 134.996 24.9724L135.254 24.5937C135.861 24.8412 136.379 25.1387 136.798 25.2572C137.216 25.3758 137.545 25.5443 137.734 25.6733C138.292 25.8313 138.52 25.8209 138.749 25.8105C138.978 25.8 139.347 25.8291 139.815 26.0371C140.283 26.2451 141.08 26.6216 142.037 27.4954C142.237 27.8533 142.297 28.1717 142.497 28.5295C143.365 29.4533 143.894 29.9796 144.322 30.3271C144.751 30.6745 145.08 30.843 145.319 31.0615C145.887 31.4484 146.645 31.9643 147.625 34.3508C146.537 32.6115 146.42 34.0847 147.698 35.953L147.756 35.2164C148.056 35.7532 148.216 36.2505 148.366 36.5189C148.476 36.9267 148.626 37.1951 148.826 37.553C148.716 37.1452 148.845 36.9558 149.084 37.1743C149.273 37.3032 149.663 37.7901 149.933 38.6952C149.912 38.2374 149.891 37.7797 149.871 37.3219C150.202 38.5453 150.393 39.7293 150.495 40.9632C151.105 42.2656 151.546 43.8969 151.798 45.3992C152.05 46.9015 152.203 48.2248 152.592 48.7117C152.592 48.7117 152.794 50.1245 152.867 51.7267C152.94 53.3289 152.834 55.031 152.447 55.5991C152.903 54.5233 152.949 57.5487 153.465 56.7912C153.178 57.5383 152.872 58.8825 152.616 60.3161C152.36 61.7498 152.244 63.223 152.236 64.0491L152.315 63.7703C152.043 66.8561 151.292 69.505 150.391 71.8856C149.541 74.3555 148.59 76.6466 147.75 79.3455C147.51 79.127 147.263 79.7347 146.965 80.2528C146.668 80.771 146.32 81.1996 146.21 80.7918C144.762 83.2432 143.772 85.6736 142.94 87.5464C142.019 89.4692 141.076 90.9342 139.713 91.2257C138.205 93.3587 138.465 94.0349 137.691 95.1711L138.128 94.6925C136.659 96.6861 135.657 97.8327 134.743 98.9294C133.83 100.026 133.046 100.933 131.874 102.409C131.169 103.037 130.582 103.248 129.956 103.597C129.33 103.947 128.575 104.486 127.532 105.772C128.566 105.312 127.503 106.14 126.719 107.048C127.295 106.608 127.564 106.459 126.661 107.784C126.482 107.884 126.124 108.084 125.856 108.234C125.856 108.234 125.816 108.373 125.905 108.323C124.316 109.68 124.434 109.262 125.14 108.633C125.05 108.683 125.09 108.544 125.169 108.265C124.613 109.162 123.511 110.13 122.537 110.908C121.563 111.686 120.858 112.315 120.968 112.723C116.139 116.475 121.364 111.328 116.79 113.647C116.493 114.165 117.627 113.884 119.019 113.224C117.945 113.824 116.822 114.334 115.748 114.933C116.037 115.241 117.777 114.153 118.811 113.693C117.132 115.099 115.064 116.019 112.856 116.9C111.822 117.36 110.648 117.78 109.475 118.201C108.888 118.411 108.351 118.711 107.765 118.921C107.228 119.221 106.641 119.431 106.015 119.781L104.87 119.833L104.602 119.983C104.502 119.804 103.318 119.995 102.592 120.166C102.116 120.784 102.952 121.021 100.555 121.773C99.6605 122.272 98.2081 122.613 96.7058 122.865C95.2036 123.117 93.5618 123.33 92.2385 123.482C93.6409 123.051 93.1332 122.982 92.4465 123.014C91.2231 123.345 90.5573 123.834 89.5918 123.786L89.6127 124.244C89.5128 124.065 88.8261 124.096 87.9605 124.227C86.9555 124.319 85.9006 124.321 85.6717 124.332C85.0059 124.821 87.6921 124.377 88.0709 124.635C85.4741 125.029 84.8769 125.01 84.2402 125.131C83.6035 125.252 82.9169 125.283 80.3596 125.537C77.5527 125.344 80.7466 124.969 79.4024 124.663C78.208 124.626 77.0136 124.589 75.7298 124.602C74.446 124.614 73.2016 124.487 71.7888 124.689L72.6835 124.19C70.3842 124.065 68.5822 123.781 67.0196 123.714C65.4069 123.558 63.9442 123.671 62.4314 123.694C60.3901 123.191 58.5777 122.677 56.9942 122.153C56.4365 121.995 55.9683 121.787 55.4106 121.629C52.4933 121.028 49.6155 120.287 46.8667 119.358C46.2591 119.11 45.562 118.913 44.9543 118.665C44.3072 118.557 43.4811 118.549 42.4657 118.412C41.082 118.245 39.4589 117.861 37.4176 117.357C35.3763 116.854 33.0457 116.043 30.2365 114.795L30.3864 115.063C27.2379 113.418 24.9156 111.78 23.001 110.033C22.5224 109.596 22.0438 109.159 21.6151 108.812C21.3758 108.593 21.1364 108.375 21.0365 108.196C20.7972 107.977 20.6973 107.798 20.4081 107.49C19.4403 106.388 18.791 105.225 18.3705 104.051C17.7234 103.943 16.9741 102.601 16.4038 101.159C15.8335 99.7173 15.492 98.265 15.0924 97.5493L15.0529 97.6887C14.7801 95.7286 14.0495 93.7894 13.3293 92.0791C13.0795 91.6318 12.9692 91.224 12.7194 90.7767C12.5092 90.1899 12.3489 89.6926 12.1387 89.1059C11.8576 87.9719 11.716 86.8774 11.7637 85.9119C11.7242 86.0514 11.4558 86.2012 11.4871 86.8878C11.3745 85.4251 11.391 83.7729 11.3783 82.4891C11.4052 81.0659 11.4529 80.1004 11.1241 79.9319C11.3195 78.1798 11.6542 76.4673 12.0285 74.6154C12.4028 72.7634 12.956 70.8116 13.6487 68.8993C14.3913 67.0764 15.3627 65.2431 16.584 63.8572C17.8052 62.4712 19.1368 61.4931 20.2104 60.8936L19.8025 61.004C21.105 60.3942 21.7708 59.9051 22.576 59.4555C23.3812 59.006 24.1365 58.4669 25.6283 57.9861C25.7573 57.7967 25.9362 57.6968 25.8468 57.7468C27.349 57.4948 29.3382 56.8537 31.1983 56.4019C33.1479 55.9002 35.0185 55.6772 36.1629 55.6251L36.2815 55.2068C38.1521 54.9839 39.9831 54.9005 41.7247 54.8669L39.7147 55.0503C40.4931 56.024 42.0655 51.2734 45.8484 51.7431C47.6295 51.5702 49.4315 51.855 51.323 52.0899C52.199 52.1876 53.6782 50.4229 54.5937 50.3811C55.5093 50.3394 56.4144 50.0688 57.2695 49.7087C59.1505 49.7147 55.557 49.3739 58.1538 48.9803C57.9935 48.483 56.8699 48.9929 57.3463 48.3749C58.6197 48.1334 59.5144 47.6339 60.4091 47.1344C61.3932 46.5849 62.4273 46.1249 63.8692 45.5546L63.7588 45.1468C67.7475 44.0934 71.4037 45.8074 74.119 44.9955C77.9765 43.0766 75.7458 42.4443 80.032 40.8728L81.1638 39.5367C82.7637 38.4087 82.716 39.3742 84.4449 38.0569C84.0662 37.7989 86.6212 36.4898 85.3478 36.7313C87.3452 35.2641 80.2318 41.2306 82.8472 40.2398C85.4126 39.1595 88.1175 38.1188 90.891 36.5703C92.5036 36.7262 95.4165 35.2172 96.5214 35.3045C96.5504 34.9362 102.478 33.1521 98.9265 33.7269C98.6082 33.7873 98.1109 33.9476 98.1608 34.037L97.5532 33.7895C100.585 31.8623 103.849 32.0346 106.991 30.5152C106.097 31.0147 104.834 31.4851 105.839 31.3934C106.783 30.9834 107.817 30.5234 108.762 30.1134L108.025 30.0552C109.417 29.3954 110.849 28.5962 112.191 27.8469L111.854 28.5045C112.39 28.2048 112.698 27.9156 113.096 27.5763C113.404 27.2871 113.851 27.0373 114.248 26.6981C115.004 26.1591 115.948 25.749 117.54 25.4471C118.953 25.2451 115.403 26.8748 118.069 25.9735C120.516 25.3115 122.634 24.4809 125.091 24.0478Z" fill="#FF9B4F"/>
<path d="M90.0707 124.223L90.1102 124.084C90.1102 124.084 90.0207 124.134 90.0707 124.223Z" fill="#FF9B4F"/>
<path d="M57.543 146.141C57.543 146.141 57.534 146.15 57.534 146.159C57.543 146.141 57.543 146.132 57.543 146.141Z" fill="#FF6E00"/>
<path d="M49.2266 88.335C49.1994 88.3259 49.1723 88.3169 49.1451 88.3169C49.1723 88.3079 49.1904 88.3169 49.2266 88.335Z" fill="#FF6E00"/>
<path d="M0.668785 122.964C0.903801 121.346 1.22017 119.791 1.56365 118.363C1.90714 116.935 2.25967 115.624 2.57603 114.449C2.90145 113.265 3.21782 112.162 3.52515 111.204C3.59747 110.969 3.67882 110.734 3.75113 110.517C3.82344 110.3 3.89576 110.092 3.95904 109.902C4.10366 109.514 4.2302 109.179 4.32963 108.899C4.32963 109.062 4.29349 109.261 4.23021 109.487C4.17598 109.713 4.09462 109.957 4.04038 110.201C3.97711 110.445 3.92287 110.68 3.88672 110.906C3.85056 111.123 3.85056 111.322 3.88672 111.466C3.94999 111.331 4.01326 111.204 4.05846 111.078C4.11269 110.951 4.15789 110.843 4.19404 110.725C4.27539 110.508 4.32963 110.309 4.37482 110.137C4.4833 109.785 4.56466 109.514 4.74544 109.288C4.70929 109.215 4.6912 109.116 4.6912 108.999C4.6912 108.881 4.71832 108.745 4.74544 108.601C4.81775 108.303 4.91719 107.968 5.06181 107.597C5.1974 107.236 5.33299 106.865 5.4505 106.504C5.50474 106.323 5.55897 106.151 5.58609 105.988C5.60417 105.907 5.6132 105.826 5.62224 105.753C5.63128 105.672 5.64031 105.6 5.64031 105.527L6.06515 105.302C6.11938 105.076 6.15556 104.85 6.21883 104.624C6.41769 104.298 6.59848 104.009 6.76118 103.756C6.93293 103.503 7.08658 103.277 7.22217 103.087C7.4843 102.698 7.71029 102.418 7.86396 102.21C8.01762 102.002 8.12609 101.867 8.1984 101.776C8.27975 101.677 8.32495 101.623 8.36111 101.568C8.44246 101.46 8.49669 101.351 8.75883 100.999C8.8221 100.908 8.89442 100.8 8.99385 100.682C9.09328 100.565 9.21078 100.42 9.34637 100.258C9.41869 100.176 9.491 100.086 9.57235 99.9955C9.65371 99.9051 9.73507 99.7967 9.8345 99.6972C10.0334 99.4893 10.2593 99.2543 10.5215 98.9922C10.6751 98.8385 10.8288 98.712 10.9825 98.5854C11.1361 98.4589 11.2808 98.3323 11.4254 98.2148C11.7237 97.9979 12.0039 97.79 12.266 97.6092C12.5372 97.4374 12.7903 97.2747 13.0344 97.1301C13.2784 96.9945 13.5134 96.868 13.7304 96.7414C13.9564 96.6239 14.1643 96.5245 14.3722 96.416C14.4716 96.3618 14.571 96.3075 14.6705 96.2623C14.7699 96.2171 14.8693 96.1629 14.9597 96.1177C15.1495 96.0183 15.3394 95.9188 15.5201 95.8194C15.6738 95.7381 15.8275 95.6477 15.9902 95.5482C15.7551 95.7019 15.4026 96.0454 16.0534 95.7833C16.0534 95.7109 16.18 95.6296 16.3608 95.5392C16.5416 95.4488 16.7947 95.3584 17.0477 95.259C17.5539 95.0782 18.0782 94.8884 18.1957 94.7166C18.5392 94.5901 19.2443 94.3008 19.7686 94.1472C20.3019 93.9845 20.6725 93.9393 20.3742 94.2195C20.6725 93.9302 22.4893 93.2252 21.3504 93.4692C21.9651 93.2433 22.5345 92.9992 22.9865 92.9269L22.2453 93.2704C22.7605 93.1077 23.2034 92.954 23.6012 92.8094C23.9989 92.6647 24.3605 92.5292 24.6949 92.4026C25.3728 92.1586 25.9694 91.9687 26.6745 91.9055L25.9785 92.2761C27.1807 91.9055 28.184 91.6072 28.5546 91.1371L27.2982 91.4354C29.2868 90.8027 30.489 90.4411 32.1974 90.0795L31.6099 90.2784C32.1613 90.188 33.2731 89.9168 34.6561 89.5643C35.3521 89.3835 36.1114 89.1937 36.9068 88.9858C37.3136 88.8773 37.7294 88.7779 38.1542 88.6694C38.5881 88.561 39.0401 88.4525 39.5011 88.344C39.9711 88.2356 40.4411 88.1361 40.9383 88.0548C41.1824 88.0096 41.4354 87.9734 41.6795 87.9373C41.8061 87.9192 41.9326 87.9011 42.0592 87.883C42.1857 87.8649 42.3123 87.8469 42.4388 87.8378C43.4512 87.7294 44.4636 87.6932 45.4127 87.7565C45.6477 87.7746 45.8827 87.7926 46.0997 87.8197C46.3257 87.8469 46.5426 87.874 46.7414 87.9101C46.9493 87.9463 47.1392 87.9825 47.329 88.0186C47.5098 88.0638 47.6906 88.109 47.8533 88.1452C48.016 88.1813 48.1697 88.2356 48.3143 88.2807C48.4589 88.3259 48.5945 88.3711 48.712 88.4073C48.9561 88.4977 49.1459 88.579 49.2995 88.6423C49.0916 88.6333 48.8928 88.6152 48.6849 88.6062L48.0702 88.5971C48.7934 88.8231 49.4713 89.1033 50.1221 89.4106C50.0046 89.3654 49.8238 89.0852 49.634 88.8231C49.4803 88.6062 49.3176 88.3983 49.2001 88.335C49.7877 88.4977 50.6464 88.7779 51.6226 89.2299C51.8757 89.3474 52.1469 89.4739 52.4181 89.6185C52.5536 89.6909 52.6983 89.7632 52.8339 89.8355C52.9695 89.9078 53.1141 89.9892 53.2587 90.0705C53.8191 90.3959 54.4157 90.7575 54.9942 91.1733C55.5818 91.5891 56.1693 92.041 56.7569 92.5292C57.3354 93.0263 57.9319 93.5596 58.4924 94.1381C59.6313 95.2861 60.707 96.5787 61.6471 97.9617C62.5871 99.3357 63.4007 100.8 64.0605 102.237C64.3859 102.96 64.6842 103.674 64.9283 104.38C65.0639 104.732 65.1723 105.076 65.2808 105.419C65.335 105.591 65.3893 105.763 65.4345 105.925C65.4797 106.097 65.5339 106.26 65.5791 106.422C66.3113 109.062 66.5011 111.24 66.6005 112.244C66.6548 112.65 66.709 112.867 66.7542 112.976C66.7994 113.075 66.8446 113.066 66.8898 112.994C66.9802 112.858 67.0344 112.515 67.0615 112.497C67.0525 113.509 66.9711 113.726 66.9169 113.898C66.8898 113.988 66.8627 114.07 66.8446 114.232C66.8265 114.395 66.5192 115.642 66.3474 115.245C66.3113 115.959 66.248 116.655 66.1667 117.351L66.3746 117.287C66.3655 117.405 66.3113 117.532 66.239 117.685C66.1667 117.839 66.0763 118.029 65.9678 118.255C65.7689 118.716 65.5339 119.357 65.3802 120.325C65.0729 121.952 64.63 123.561 64.1961 125.115C63.7622 126.661 63.3103 128.234 62.8583 129.771C62.9216 129.762 63.021 129.608 63.1385 129.373C63.256 129.138 63.3826 128.821 63.5091 128.514C63.4007 128.921 63.1747 129.545 63.1385 129.942C63.1476 129.545 63.021 129.852 62.8945 130.186C62.7679 130.521 62.6414 130.882 62.6956 130.584C62.099 131.633 61.6561 132.925 61.1589 134.191C60.6708 135.456 57.3173 144.911 57.3173 145.083C57.3173 145.083 56.2416 148.879 55.8891 149.819C55.8078 150 55.7445 150.136 55.7083 150.235C55.6631 150.344 55.636 150.416 55.627 150.479C55.5998 150.597 55.627 150.633 55.645 150.678C55.6631 150.723 55.6812 150.778 55.645 150.922C55.6089 151.067 55.4914 151.311 55.2473 151.727C55.166 151.862 55.0846 152.007 54.9942 152.143L54.7321 152.549C54.5423 152.82 54.3524 153.092 54.1536 153.363L53.8372 153.761C53.7287 153.887 53.6293 154.023 53.5118 154.149C53.2858 154.402 53.0689 154.655 52.8339 154.89C52.7164 155.008 52.5988 155.134 52.4813 155.252L52.1107 155.595L51.9299 155.767C51.8667 155.821 51.8034 155.876 51.7401 155.93L51.3605 156.246C51.2339 156.355 51.0983 156.445 50.9718 156.554C50.8362 156.653 50.7097 156.752 50.5741 156.852C50.3029 157.042 50.0408 157.232 49.7605 157.394C48.6668 158.09 47.5188 158.651 46.3799 159.085C45.2409 159.518 44.102 159.853 42.9721 160.106C41.8513 160.35 40.7394 160.522 39.6457 160.639C38.552 160.757 37.4853 160.811 36.4278 160.838C35.3702 160.865 34.3307 160.847 33.3002 160.802C33.0381 160.793 32.785 160.784 32.5319 160.766C32.2697 160.757 32.0257 160.739 31.7635 160.721C31.2393 160.685 30.6608 160.639 30.0371 160.558C29.9196 160.585 29.9286 160.603 30.0009 160.63C30.0732 160.657 30.2088 160.675 30.3534 160.712C29.9828 160.657 29.6122 160.603 29.2235 160.531C28.8349 160.459 28.4371 160.377 28.0303 160.269C27.6236 160.169 27.2078 160.043 26.792 159.898C26.5841 159.826 26.3762 159.744 26.1683 159.663C26.0689 159.618 25.9604 159.582 25.8609 159.537C25.7615 159.491 25.6621 159.446 25.5627 159.401C24.7853 159.039 24.0893 158.633 23.4746 158.208C22.8599 157.783 22.3176 157.358 21.8295 156.933C21.2239 156.545 21.016 156.527 20.8081 156.454C20.8623 156.472 20.7448 156.346 20.5098 156.12C20.4013 156.011 20.2567 155.876 20.094 155.722C19.9403 155.577 19.7595 155.406 19.5606 155.216C18.7742 154.475 17.6986 153.48 16.5958 152.486C15.493 151.483 14.3812 150.479 13.5315 149.72C12.6818 148.961 12.0943 148.436 12.0491 148.418L12.1847 148.048C11.7598 147.668 11.5068 147.469 11.326 147.361C11.1542 147.252 11.0548 147.234 10.9734 147.225C10.8017 147.198 10.6571 147.18 9.8797 146.412C9.73507 145.924 9.04808 145.318 8.33399 144.676C7.6199 144.043 6.89676 143.384 6.70694 142.977C6.6979 142.995 6.48999 142.787 6.27305 142.597C6.05611 142.398 5.83918 142.199 5.80302 142.29C5.79398 142.172 5.73974 142.055 5.65839 141.928C5.57703 141.802 5.46857 141.666 5.35106 141.521C5.23355 141.377 5.09796 141.232 4.96237 141.07C4.83582 140.907 4.70927 140.744 4.6008 140.572C4.49234 140.292 4.79967 140.699 4.98949 140.816L4.73639 140.437C4.65504 140.31 4.56464 140.184 4.48329 140.048L4.23924 139.65C4.15789 139.515 4.07654 139.388 3.99519 139.244C3.52515 138.665 3.28109 138.584 3.69689 139.298C3.52514 139.036 3.30821 138.719 3.07319 138.313C3.01896 138.213 2.95568 138.105 2.89241 138.005C2.82913 137.897 2.76585 137.788 2.70258 137.671C2.57603 137.436 2.44948 137.183 2.31389 136.912C2.18734 136.64 2.05176 136.351 1.91618 136.044C1.84386 135.89 1.78962 135.736 1.72634 135.574C1.66307 135.411 1.59978 135.248 1.53651 135.086C1.29245 134.417 1.07554 133.685 0.885719 132.916C0.515114 131.38 0.307182 129.689 0.271027 127.99C0.298141 126.281 0.433769 124.582 0.668785 122.964Z" fill="#FF6E00"/>
<path d="M16.0087 95.5388C16.0354 95.5209 16.0622 95.5031 16.0801 95.4941C16.0533 95.512 16.0354 95.5298 16.0087 95.5388Z" fill="#FF6E00"/>
</svg>
