<svg width="80" height="234" viewBox="0 0 80 234" fill="none" xmlns="http://www.w3.org/2000/svg">
<path d="M4.10568 31.8793C0.37815 49.9056 8.72159 68.6671 23.4156 79.3273C30.4151 84.4134 38.6558 87.7271 47.1821 89.1818C56.3732 90.7539 67.0291 90.738 75.2183 85.7114C81.9007 81.6067 86.7343 73.2364 83.824 65.4096C81.1066 58.1327 72.8757 53.4642 65.2531 54.0976C56.9832 54.7684 50.1121 60.9673 46.6135 68.1988C42.4915 76.7149 43.0191 86.6105 45.5934 95.5131C48.3781 105.12 53.2754 114.335 59.8254 121.917C65.1899 128.135 71.7909 133.218 79.0434 137.05C93.7583 144.841 110.704 147.637 127.228 147.791C131.513 147.827 135.813 147.68 140.095 147.378C143.927 147.106 147.751 146.717 151.475 145.755C158.211 144.004 165.394 139.997 166.055 132.299C166.808 123.506 158.031 117.319 151.108 113.944C147.025 111.95 142.643 110.446 138.264 109.28C133.796 108.075 129.203 107.259 124.576 107.206C115.88 107.105 107.387 110.137 102.317 117.53C97.242 124.905 96.2721 134.447 95.5899 143.124C93.9464 164.007 96.3182 185.209 102.538 205.221C104.008 209.976 105.723 214.672 107.616 219.285C107.855 219.863 108.693 219.382 108.458 218.822C100.848 200.38 96.6662 180.571 96.0946 160.643C95.8219 151.143 96.1605 141.375 97.9074 132.003C99.44 123.716 102.876 115.486 110.623 111.262C118.37 107.039 127.854 107.764 136.132 109.756C144.476 111.772 153.459 114.946 159.814 120.904C162.724 123.64 165.15 127.249 165.119 131.393C165.088 135.04 163.292 138.299 160.477 140.552C154.719 145.188 146.617 145.978 139.516 146.465C123.671 147.558 107.351 146.52 92.1884 141.562C84.8036 139.155 77.7355 135.756 71.4258 131.218C64.3654 126.127 58.4545 119.624 53.9805 112.156C45.1064 97.3613 38.7764 75.0891 52.7823 61.2353C55.6534 58.3919 59.2177 56.2756 63.1854 55.4139C67.0592 54.5749 71.133 55.2188 74.6642 56.9886C78.1021 58.7014 81.0633 61.4843 82.6361 65.0212C84.301 68.7744 84.0025 73.043 82.2646 76.7057C78.0702 85.4979 68.2015 88.7636 59.0904 89.0814C50.7107 89.3811 42.2465 87.7721 34.5118 84.4949C26.7959 81.2131 19.8009 76.1458 14.556 69.6005C9.01857 62.6686 5.4339 54.1102 4.47169 45.2944C3.99257 40.9357 4.19369 36.5117 5.08299 32.2193C5.15824 31.5448 4.2367 31.2708 4.10568 31.8793Z" fill="#FF6E00"/>
</svg>
