<svg width="184" height="234" viewBox="0 0 184 234" fill="none" xmlns="http://www.w3.org/2000/svg">
<path d="M4.10555 31.8793C0.378032 49.9056 8.72147 68.6671 23.4155 79.3273C30.415 84.4134 38.6557 87.7271 47.182 89.1818C56.373 90.7539 67.029 90.738 75.2182 85.7114C81.9005 81.6067 86.7341 73.2364 83.8239 65.4096C81.1065 58.1327 72.8756 53.4642 65.2529 54.0976C56.9831 54.7684 50.112 60.9673 46.6134 68.1988C42.4913 76.7149 43.019 86.6105 45.5933 95.5131C48.378 105.12 53.2753 114.335 59.8252 121.917C65.1897 128.135 71.7908 133.218 79.0433 137.05C93.7582 144.841 110.704 147.637 127.228 147.791C131.512 147.827 135.812 147.68 140.095 147.378C143.927 147.106 147.75 146.717 151.475 145.755C158.21 144.004 165.394 139.997 166.055 132.299C166.808 123.506 158.031 117.319 151.108 113.944C147.025 111.95 142.643 110.446 138.264 109.28C133.796 108.075 129.203 107.259 124.576 107.206C115.88 107.105 107.387 110.137 102.317 117.53C97.2419 124.905 96.272 134.447 95.5897 143.124C93.9462 164.007 96.318 185.209 102.538 205.221C104.008 209.976 105.722 214.672 107.615 219.285C107.855 219.863 108.693 219.382 108.458 218.822C100.848 200.38 96.666 180.571 96.0945 160.643C95.8217 151.143 96.1604 141.375 97.9072 132.003C99.4399 123.716 102.875 115.486 110.623 111.262C118.37 107.039 127.853 107.764 136.132 109.756C144.476 111.772 153.458 114.946 159.814 120.904C162.724 123.64 165.149 127.249 165.119 131.393C165.088 135.04 163.292 138.299 160.477 140.552C154.719 145.188 146.617 145.978 139.515 146.465C123.671 147.558 107.351 146.52 92.1883 141.562C84.8035 139.155 77.7354 135.756 71.4257 131.218C64.3653 126.127 58.4543 119.624 53.9803 112.156C45.1063 97.3613 38.7762 75.0891 52.7822 61.2353C55.6533 58.3919 59.2176 56.2756 63.1853 55.4139C67.059 54.5749 71.1329 55.2188 74.6641 56.9886C78.102 58.7014 81.0632 61.4843 82.6359 65.0212C84.3009 68.7744 84.0024 73.043 82.2645 76.7057C78.0701 85.4979 68.2014 88.7636 59.0902 89.0814C50.7106 89.3811 42.2464 87.7721 34.5117 84.4949C26.7958 81.2131 19.8008 76.1458 14.5559 69.6005C9.01845 62.6686 5.43378 54.1102 4.47157 45.2944C3.99244 40.9357 4.19357 36.5117 5.08287 32.2193C5.15812 31.5448 4.23658 31.2708 4.10555 31.8793Z" fill="#FF6E00"/>
</svg>
