<svg width="306" height="93" viewBox="0 0 306 93" fill="none" xmlns="http://www.w3.org/2000/svg">
<path d="M146.193 11.3212L145.811 11.0372C145.611 11.2131 145.803 11.3097 146.193 11.3212Z" fill="#6A6A6A"/>
<path d="M178.854 8.5569C178.275 8.35803 177.103 8.41439 176.32 8.48224C177.097 8.59604 178.072 8.62475 178.854 8.5569Z" fill="#6A6A6A"/>
<path d="M101.572 16.0963L99.8363 15.4089C100.023 15.6871 100.798 15.8917 101.572 16.0963Z" fill="#6A6A6A"/>
<path d="M183.763 7.51997C184.148 7.7131 184.927 7.73606 185.512 7.75329C185.125 7.65098 184.543 7.54294 183.763 7.51997Z" fill="#6A6A6A"/>
<path d="M12.7349 71.5582C13.3116 71.8479 13.5092 71.7628 13.7095 71.5869C13.3197 71.5754 13.1274 71.4788 12.7349 71.5582Z" fill="#6A6A6A"/>
<path d="M33.9515 26.83L34.1492 26.7443C33.9543 26.7385 33.9543 26.7385 33.5644 26.727L33.9515 26.83Z" fill="#6A6A6A"/>
<path d="M10.2583 36.401C10.261 36.3102 10.2637 36.2194 10.0729 36.1228C10.0676 36.3045 10.0675 36.3045 10.2583 36.401Z" fill="#6A6A6A"/>
<path d="M53.8083 21.6876C54.0086 21.5117 54.401 21.4324 54.6013 21.2565L53.8083 21.6876Z" fill="#6A6A6A"/>
<path d="M76.5422 84.2536L74.3607 85.4618C79.4446 85.0662 75.5516 84.7697 80.6301 84.5558C79.255 84.8789 82.7635 84.9822 79.8264 85.3502C86.4509 85.6362 84.6993 85.4937 90.5442 85.7568L90.9714 84.4969C92.9259 84.3727 93.6896 84.9406 94.2663 85.2303C93.484 85.2981 92.3171 85.1728 92.3118 85.3544C94.6187 86.5131 95.8417 84.7313 98.5437 85.7198C97.7748 85.3336 97.0112 84.7658 99.3556 84.6531C98.7494 85.3623 102.261 85.3749 103.035 85.5795C102.461 85.199 108.311 85.2805 108.335 84.4632C111.245 85.0034 107.537 85.0759 107.523 85.5299C109.505 84.4976 116.898 85.1699 118.869 84.5008C118.866 84.5917 119.061 84.5974 119.058 84.6882C121.811 83.9513 126.502 83.6351 131.803 82.5188L130.022 83.3752C135.872 83.4567 132.999 81.6451 137.688 81.4197C137.071 82.4922 145.311 80.9172 143.711 82.2334C145.679 81.6552 147.837 81.2642 149.415 80.6745C150.002 80.6009 150.587 80.6182 151.174 80.5446C150.379 81.0665 147.236 81.7919 149.965 81.8723L153.695 81.0733L154.653 81.6469C154.667 81.1928 158.183 81.0238 157.804 80.649C158.76 81.3134 160.504 81.7284 160.49 82.1824C162.843 81.7973 166.73 82.2754 168.506 81.6006L168.888 81.8845C170.88 80.4889 176.321 81.1946 177.144 79.7646L178.882 80.3611C181.817 80.084 181.646 79.261 182.246 78.7333C183.614 78.6827 185.178 78.547 186.545 78.4964C186.334 79.0356 191.215 78.9067 192.182 79.2078C194.136 79.0836 199.805 78.7053 201.194 77.9282C199.023 78.7731 200.766 79.1881 196.465 79.5158C199.161 80.6859 202.726 78.8822 207.607 78.7534L207.783 79.3948C213.46 78.744 214.071 77.8532 215.858 76.8151C216.248 76.8266 216.835 76.753 217.225 76.7645C217.601 77.23 216.814 77.4795 215.623 78.1715C220.298 78.4002 227.155 77.4206 232.231 77.2975C233.974 77.7124 232.986 78.1378 231.416 78.4551C236.514 77.6055 243.138 77.8915 245.912 76.4281C244.724 77.0294 248.051 76.6729 250.193 76.8269C250.006 76.5487 250.406 76.197 250.601 76.2027C253.549 75.4715 260.598 74.5885 264.491 74.885L263.308 75.3046C267.604 75.1585 270.55 74.5182 273.69 73.8835C274.277 73.81 274.67 73.7306 275.26 73.5663C276.432 73.5099 277.799 73.4593 278.974 73.3121C280.928 73.1879 283.078 73.0695 285.04 72.6728C285.625 72.6901 285.617 72.9625 285.609 73.235C285.601 73.5074 285.791 73.6948 287.561 73.2016C288.159 72.7647 287.783 72.2992 287.793 71.9359C287.796 71.8451 287.796 71.8451 287.799 71.7543C288.592 71.3232 288.995 70.8806 289.596 70.353L290.755 70.7507C290.573 70.2909 290.389 69.9219 290.205 69.5529C290.41 69.1954 290.616 68.8379 290.821 68.4804C291.032 67.9413 291.441 67.3171 291.652 66.7779C292.263 65.8871 292.68 64.9904 292.899 64.1789C294.982 59.6957 296.873 55.116 298.176 50.6098C298.755 50.8087 299.332 51.0983 299.706 51.6547C300.128 50.5764 299.177 49.7304 298.809 48.9924C299.004 48.9982 299.196 49.0947 299.391 49.1005C299.396 48.9189 299.204 48.8223 298.817 48.72C298.82 48.6292 298.822 48.5384 298.828 48.3567C299.613 48.1981 299.423 48.0107 299.041 47.7268C299.044 47.636 299.047 47.5452 299.049 47.4544C299.049 47.4544 299.049 47.4544 299.052 47.3636C299.439 47.4658 299.634 47.4716 300.419 47.313C300.029 47.3015 299.639 47.29 299.25 47.2785C299.447 47.1934 299.45 47.1026 299.645 47.1084C299.452 47.0118 299.26 46.9153 299.266 46.7336C299.266 46.7336 299.268 46.6428 299.463 46.6486L299.268 46.6428C299.477 46.1945 299.49 45.7404 299.503 45.2864C300.093 45.122 300.296 44.8553 299.722 44.4748C299.944 43.5724 300.168 42.5792 300.195 41.6711C300.777 41.7792 301.557 41.8021 302.724 41.9274C301.754 41.7171 300.98 41.5125 300.401 41.3136C300.406 41.132 300.411 40.9504 300.612 40.7745L302.355 41.1894C302.756 40.8377 301.989 40.3606 300.638 39.8664C300.649 39.5031 300.657 39.2307 300.863 38.8732C301.058 38.8789 301.25 38.9755 301.445 38.9812L301.076 38.2432L303.407 38.5846C301.466 38.2547 302.254 38.0052 300.892 37.8742C300.903 37.511 300.914 37.1478 301.117 36.8811L301.314 36.796L302.291 36.7339C301.902 36.7224 301.707 36.7167 301.317 36.7052C301.514 36.6201 301.517 36.5293 301.52 36.4385L302.297 36.5523L301.52 36.4385C301.522 36.3477 301.525 36.2569 301.528 36.166C301.723 36.1718 301.915 36.2683 301.915 36.2683C302.508 36.0131 301.926 35.9051 300.954 35.7856C300.956 35.6948 300.959 35.6039 300.959 35.6039C301.739 35.6269 302.521 35.5591 302.916 35.3889C303.111 35.3947 303.111 35.3947 303.111 35.3947C303.127 34.8498 303.344 34.1291 301.798 33.6291C302.385 33.5555 303.162 33.6692 303.741 33.8681C304.735 33.2611 302.401 33.0106 304.174 32.4266L303.191 32.6703C301.84 32.1761 301.667 31.4438 303.435 31.0415L304.017 31.1495C302.471 30.6495 305.413 30.0999 304.054 29.8781C303.269 30.0368 302.69 29.8379 301.902 30.0874L301.331 29.6161C301.336 29.4345 301.344 29.162 301.349 28.9804L302.911 28.9355L301.953 28.3619C301.17 28.4298 302.161 27.9136 301.192 27.7033C301.195 27.6125 301.195 27.6125 301.197 27.5217C301.782 27.5389 302.554 27.8343 303.333 27.8573C302.562 27.5619 303.734 27.5055 302.182 27.1871L304.535 26.802L303 25.9388C303.195 25.9445 303.389 25.9502 303.584 25.956C301.643 25.6261 304.393 24.98 301.48 24.5306C301.491 24.1674 301.499 23.8949 301.51 23.5317C301.531 22.8052 301.358 22.073 300.989 21.335C301.187 21.2499 301.384 21.1648 301.582 21.0798C301.192 21.0683 300.997 21.0626 300.61 20.9603C300.421 20.7729 300.231 20.5855 300.044 20.3073C299.47 19.9269 299.099 19.2797 298.536 18.536C298.744 18.0877 298.952 17.6393 299.55 17.2025L297.978 17.6106L297.785 17.5141C297.596 17.3267 297.406 17.1393 297.217 16.952C297.801 16.9692 298.584 16.9013 299.169 16.9186C298.584 16.9013 297.807 16.7876 296.835 16.668C296.453 16.3841 296.071 16.1002 295.492 15.9013C296.087 15.5553 297.073 15.2208 295.123 15.1634C295.321 15.0783 295.324 14.9875 295.519 14.9932C294.149 15.1346 293.583 14.4817 292.229 14.0783C292.819 13.9139 293.604 13.7552 294.389 13.5966L294.763 14.1529C295.361 13.7161 294.977 13.523 294.392 13.5058C293.81 13.3977 292.833 13.4598 292.643 13.2725C291.281 13.1415 290.475 14.0266 289.693 14.0944C289.503 13.9071 288.718 14.0657 288.924 13.7082C288.745 13.1576 290.515 12.6644 291.303 12.415C289.14 12.9875 289.145 12.8059 287.196 12.7484C287.794 12.3116 288.189 12.1414 288.384 12.1472C287.994 12.1357 287.404 12.3001 286.617 12.5496L286.83 11.9196C286.088 10.6253 283.087 13.1727 281.744 12.406C282.334 12.2416 281.752 12.1336 281.365 12.0313C280.783 11.9232 280.006 11.8094 280.016 11.4462C280.799 11.3783 280.841 9.92536 281.832 9.40921C280.291 8.72758 280.046 10.4472 278.681 10.407C279.082 10.0553 279.68 9.61847 280.08 9.2667C278.316 9.57827 279.282 9.87941 277.522 10.0093C278.115 9.75414 277.146 9.54381 278.129 9.30009C276.385 8.88516 276.77 9.07827 275.413 8.76563L274.596 10.014C274.009 10.0876 274.025 9.54275 274.033 9.27031C274.228 9.27605 274.615 9.37835 274.62 9.19672C274.46 8.01042 273.435 9.70713 273.077 8.6059C273.063 9.05996 273.047 9.60484 272.463 9.58761C272.874 8.8726 271.707 8.74731 271.913 8.38981C272.092 8.94042 270.543 8.53124 270.129 9.33706C269.563 8.68415 270.538 8.71286 270.743 8.35535C269.934 9.33131 268.209 8.2807 267.608 8.80835C267.611 8.71753 267.614 8.62674 267.614 8.62674C266.818 9.14864 265.451 9.19923 263.865 10.0614L264.471 9.35215C263.117 8.94871 263.256 10.8615 262.087 10.827C262.509 9.74877 260.137 10.7696 260.754 9.6971C259.956 10.3098 259.171 10.4685 258.754 11.3651C258.188 10.7122 260.161 9.95231 259.195 9.65116L258.204 10.1673L258.025 9.6167C258.012 10.0708 257.037 10.042 257.027 10.4053C256.853 9.67305 256.477 9.20751 256.688 8.66838C256.098 8.83278 255.142 8.16836 254.538 8.78682L254.549 8.42358C253.927 9.67772 252.592 8.63859 252.359 9.90422L251.991 9.16622C251.011 9.31913 251.169 10.5962 250.768 10.948C250.376 11.0273 249.983 11.1067 249.596 11.0044C250.792 10.1307 249.041 9.9882 248.664 9.52265C248.079 9.50543 246.712 9.55605 246.304 10.1803C246.91 9.47098 246.536 8.91463 247.511 8.94335C246.963 7.65475 245.943 9.16982 244.582 9.03881L244.6 8.40314C242.833 8.80552 242.998 9.81018 242.186 10.877C242.013 10.1447 242.018 9.9631 242.432 9.15728C241.276 8.66876 239.506 9.16195 238.141 9.12175C237.767 8.56539 237.97 8.29869 238.368 8.03774C237.18 8.63897 235.444 7.95159 234.627 9.19999C234.838 8.66086 234.053 8.81951 233.474 8.62065C233.466 8.89309 233.455 9.25634 233.458 9.16553C232.662 9.68743 231.087 10.1864 229.931 9.69786L230.136 9.34036C228.969 9.21509 228.168 9.9186 227.375 10.3497C226.401 10.321 225.426 10.2922 224.649 10.1785C224.66 9.81522 224.865 9.45773 224.281 9.4405C224.08 9.61638 224.072 9.88882 224.067 10.0704C223.485 9.96241 222.906 9.76355 222.719 9.48537L222.11 10.2854C215.09 10.1695 221.968 8.46347 213.403 7.84754C213.985 7.95558 214.567 8.06361 215.146 8.26246C213.587 8.21652 212.207 8.7212 210.463 8.30627C209.886 8.01661 211.058 7.96025 211.844 7.80159C209.494 8.09593 206.952 8.29369 204.794 8.68458C204.616 8.13396 204.818 7.86728 206.194 7.54423C199.759 7.44553 207.512 9.12823 199.529 8.62034C198.175 8.21689 199.935 8.08696 201.112 7.84898C197.43 7.01337 194.875 7.66522 191.348 8.19754C191.174 7.4653 193.708 7.53994 190.603 6.99399C191.372 7.38021 191.74 8.11821 189.399 8.14011C190.397 7.35151 187.46 7.71943 185.124 7.5597C185.701 7.84937 185.495 8.20687 184.71 8.36552C183.535 8.51269 182.568 8.21154 181.004 8.34722L183.909 9.06903C180.179 9.86804 177.671 8.88526 174.555 8.70256C174.756 8.52668 175.148 8.44736 175.736 8.37378C174.176 8.32783 172.427 8.09454 170.673 8.04286C168.919 7.99117 167.159 8.1211 165.194 8.60854L165.587 8.52921C158.527 9.77546 168.286 9.60854 160.051 11.002C157.122 11.0974 160.324 8.37417 154.233 9.83076C155.982 10.0641 154.994 10.4894 153.419 10.9883C151.648 11.4815 149.096 12.0426 147.331 12.3541L150.311 10.5332C148.746 10.6689 146.386 11.3265 145.609 11.2127L145.991 11.4966C146.93 12.7059 141.104 11.8071 138.928 12.8337C141.134 10.8082 141.516 11.0921 141.177 9.35517C139.19 10.5691 136.621 11.675 131.927 12.082L134.904 10.3519C128.453 10.7981 122.325 13.5261 117.981 15.3068C118.601 14.1435 116.456 14.0803 118.048 13.0365L112.36 14.0505L113.373 12.8078C111.77 14.2149 108.465 13.8448 109.987 15.1621C110.58 14.9069 110.39 14.7196 111.562 14.6632C111.744 15.123 111.324 16.1105 108.192 16.4726C105.853 16.4037 108.993 15.7691 108.222 15.4737C106.636 16.3359 105.883 15.4048 104.107 16.0796L106.438 16.421C105.629 17.3969 103.108 16.8682 101.333 17.543C103.498 16.8797 102.339 16.482 101.178 16.1751L101.37 16.2716C99.9978 16.5039 98.4117 17.3661 97.0553 17.0534L97.4826 15.7935L95.8885 16.9281C94.9139 16.8994 94.1423 16.604 95.3252 16.1844C88.0999 16.426 97.2074 18.5122 87.8353 18.7814C87.6538 18.3216 88.4469 17.8905 90.9835 17.8743C90.8099 17.1421 90.0383 16.8467 87.499 16.9537C87.499 16.9537 87.5017 16.8628 87.3068 16.8571C82.8023 17.4515 76.7304 18.2724 74.354 19.4749C73.1871 19.3496 73.9802 18.9185 74.7733 18.4874C69.2995 18.8715 68.4824 20.1199 62.6242 20.3109L65.3557 20.3004C62.3971 21.3949 56.3119 22.6698 52.6138 22.3791L53.212 21.9422C50.6406 23.1389 44.4033 22.9552 43.5968 23.8403C45.3511 23.892 44.1656 24.4024 46.5099 24.2897C44.1468 25.0381 41.5861 25.8716 39.223 26.62L37.4956 25.6602C36.3127 26.0798 34.9349 26.4936 33.7493 27.004C34.5263 27.1178 32.9589 27.3443 31.5811 27.7582C30.0084 28.1663 28.433 28.6652 29.1993 29.1423C26.4598 29.4251 29.0338 28.1376 29.4424 27.5134C27.4638 28.4549 26.6948 28.0687 25.293 29.2998C24.1235 29.2654 22.954 29.2309 21.7845 29.1965C20.1984 30.0586 18.6096 31.0116 17.0209 31.9646C17.2211 31.7887 16.6337 31.8623 16.8339 31.6865C16.2224 32.5773 14.4495 33.1613 12.866 33.9327C11.2826 34.7041 9.69389 35.6571 10.0462 36.9399C10.0489 36.8491 9.854 36.8434 9.85667 36.7525C10.0302 37.4848 9.03153 38.2734 8.03019 39.1528C7.03152 39.9414 6.03015 40.8208 5.43201 41.2576C4.79376 43.0566 6.96196 42.3025 7.93119 42.5128C6.3023 44.828 6.08324 45.6396 6.06184 46.3661C6.23535 47.0983 6.6065 47.7455 7.71714 49.7778C6.31796 50.9181 5.1698 50.1572 4.21395 49.4928C3.25809 48.8284 2.49716 48.1697 1.27949 49.7699C2.63055 50.2642 3.54359 52.3815 4.25104 54.8564C3.82909 55.9347 3.78357 57.4785 3.73809 59.0223C3.6926 60.5661 3.64718 62.1099 3.4148 63.3755L4.9875 62.9674C5.93265 63.9951 6.8778 65.0227 8.02055 65.9653C6.6695 65.471 5.51337 64.9825 4.16235 64.4883C5.12356 64.971 7.42243 66.4021 9.1526 67.2711C11.4515 68.7022 11.0429 69.3264 10.8319 69.8655C10.6209 70.4047 10.2177 70.8472 13.1201 71.6599C13.1147 71.8415 13.1121 71.9323 12.9145 72.0174C15.0479 72.4438 17.9155 74.437 22.5506 76.0278C21.5734 76.0899 20.5961 76.152 19.4239 76.2084L16.9301 74.7715C16.9087 75.498 18.0649 75.9865 19.6108 76.4865C21.1595 76.8957 23.0979 77.3164 24.449 77.8107C27.9388 78.5497 27.3887 77.3519 29.5275 77.5967C30.4914 77.9887 32.4352 78.2277 33.2015 78.7048C35.7087 79.6876 32.1921 79.8566 30.8197 80.0889C34.3416 79.7382 35.1079 80.2152 40.9393 80.9324C40.9233 81.4772 40.3331 81.6416 39.3612 81.5221C40.723 81.6531 41.8952 81.5967 42.8805 81.2622L44.413 82.2163C47.31 83.2105 49.4648 82.9105 51.4247 82.6047C53.5795 82.3046 55.542 81.9079 59.427 82.4769C58.2522 82.624 60.0037 82.7665 62.1424 83.0113C64.2839 83.1653 67.2049 83.3422 68.3637 83.7399C65.6322 83.7504 69.4851 85.409 67.5198 85.8965C74.9267 86.1147 71.469 84.2859 76.5422 84.2536ZM261.227 13.5284C261.032 13.5227 261.032 13.5227 260.837 13.5169C260.839 13.4261 261.037 13.3411 261.04 13.2502C261.232 13.3468 261.229 13.4376 261.227 13.5284ZM254.597 13.424C254.402 13.4182 254.207 13.4125 254.012 13.4067L254.02 13.1343C254.616 12.7883 254.607 13.0607 254.597 13.424ZM240.563 13.0105C240.173 12.999 239.783 12.9875 239.393 12.976C239.594 12.8002 239.796 12.5335 240.581 12.3748C240.384 12.4599 240.571 12.7381 240.563 13.0105Z" fill="#E6E6E6"/>
<path d="M87.7056 16.5965C90.0553 16.3021 92.2101 16.002 93.0004 15.6617C92.4184 15.5536 86.9447 15.9377 87.7056 16.5965Z" fill="#6A6A6A"/>
<path d="M251.559 76.8671C251.367 76.7705 250.979 76.6682 250.395 76.651C250.387 76.9234 250.774 77.0257 251.559 76.8671Z" fill="#6A6A6A"/>
<path d="M158.316 83.2102C159.891 82.7112 160.487 82.3651 160.495 82.0927C159.32 82.2398 158.53 82.5802 158.316 83.2102Z" fill="#6A6A6A"/>
<path d="M119.257 84.693C119.059 84.7781 118.667 84.8574 118.472 84.8517C119.059 84.7781 119.254 84.7838 119.257 84.693Z" fill="#6A6A6A"/>
<path d="M33.7476 80.0845C34.7222 80.1133 35.8864 80.3294 37.0532 80.4547C38.2173 80.6708 39.3815 80.8869 40.356 80.9156C39.3815 80.8869 38.22 80.5799 37.0585 80.273C35.8944 80.0569 34.7275 79.9316 33.7476 80.0845Z" fill="#6A6A6A"/>
<path d="M275.627 74.3951L275.633 74.2135L273.857 74.8884L275.627 74.3951Z" fill="#6A6A6A"/>
<path d="M253.914 76.3911C254.899 76.0565 255.879 75.9036 256.862 75.6598C256.085 75.546 252.947 76.0899 253.914 76.3911Z" fill="#6A6A6A"/>
<path d="M184.772 79.1711L184.166 79.8805L185.744 79.2907L184.772 79.1711Z" fill="#6A6A6A"/>
<path d="M300.057 46.3927C299.668 46.3812 299.47 46.4663 299.272 46.5514C299.662 46.5628 300.055 46.4835 300.057 46.3927Z" fill="#6A6A6A"/>
<path d="M295.517 15.085C295.712 15.0908 295.91 15.0057 296.302 14.9264C295.913 14.9149 295.715 15 295.517 15.085Z" fill="#6A6A6A"/>
<path d="M304.024 30.9687C304.219 30.9745 304.412 31.0717 304.606 31.0775L304.024 30.9687Z" fill="#6A6A6A"/>
<path d="M303.491 35.8605C304.078 35.7869 304.874 35.2649 303.314 35.219C303.112 35.4857 303.106 35.6674 303.491 35.8605Z" fill="#6A6A6A"/>
<path d="M233.675 8.4453C233.672 8.53612 233.865 8.63268 234.057 8.72925C233.87 8.45103 233.875 8.2694 233.675 8.4453Z" fill="#6A6A6A"/>
<path d="M256.889 8.58388C257.086 8.4988 257.484 8.23781 257.698 7.60779C257.1 8.04468 256.897 8.31141 256.889 8.58388Z" fill="#6A6A6A"/>
<path d="M267.614 8.71804C267.617 8.62722 267.811 8.63294 267.813 8.54211C267.813 8.54211 267.617 8.62722 267.614 8.71804Z" fill="#6A6A6A"/>
<path d="M290.53 12.2103C289.55 12.3632 288.97 12.1643 288.191 12.1413C288.973 12.0735 289.347 12.6299 290.53 12.2103Z" fill="#6A6A6A"/>
<path d="M227.596 9.53821L227.59 9.71987L227.999 9.09558L227.596 9.53821Z" fill="#6A6A6A"/>
<path d="M233.079 8.79096C232.876 9.05768 232.676 9.23359 232.283 9.31293C232.476 9.4095 233.266 9.06917 233.079 8.79096Z" fill="#6A6A6A"/>
<path d="M250.41 9.93777L250.624 9.30774L250.218 9.8412L250.41 9.93777Z" fill="#6A6A6A"/>
<path d="M291.991 44.4313C291.956 41.9774 291.743 39.5292 291.354 37.106C291.328 36.8826 291.273 36.519 291.195 36.0358C291.117 35.5526 290.982 34.9552 290.839 34.2512C290.519 32.8563 290.046 31.0717 289.396 29.056C289.034 27.8677 288.558 26.7176 287.973 25.6219C287.226 24.321 286.243 23.1699 285.076 22.2268C283.909 21.3107 282.622 20.5591 281.25 19.9928C279.938 19.4514 278.584 19.017 277.201 18.694C275.846 18.3719 274.541 18.1537 273.238 17.9381C272.588 17.8446 271.938 17.7407 271.301 17.6601L269.397 17.4394C266.893 17.1796 264.526 17.0705 262.443 17.0237C258.282 16.938 255.244 17.1094 254.399 17.164C255.884 17.2133 257.372 17.2913 258.857 17.39C255.281 17.4419 252.202 17.5978 249.401 17.7615C246.6 17.9251 244.07 18.1173 241.638 18.281C236.772 18.6135 232.146 18.8473 226.149 19.2265L226.809 19.1304C225.054 19.1304 224.12 19.9097 204.704 19.6941V19.6629C204.141 19.7144 203.576 19.7352 203.011 19.7253L206.051 19.7902C204.046 19.9435 202.299 20.1487 199.62 20.2837C199.051 20.2837 198.853 20.2162 198.796 20.1694C196.606 20.2707 194.416 20.4033 192.227 20.5253L190.198 20.4344C188.193 20.6604 189.137 21.0189 183.746 21.1384C184.771 21.2215 184.105 21.3072 183.27 21.3981C182.435 21.4891 181.431 21.5774 181.767 21.6267C181.507 21.6112 180.875 21.6034 180.376 21.593C178.779 21.7203 176.475 21.9852 174.394 22.2164C172.314 22.4761 170.444 22.7541 169.713 22.91L171.726 22.7931L173.859 22.671C174.639 22.6242 175.515 22.6008 176.404 22.5645L179.107 22.471L181.707 22.4216C183.356 22.3904 184.771 22.4008 185.608 22.4216C181.117 22.6398 184.427 22.5359 185.319 22.5774L185.613 22.4839C188.305 22.3774 188.315 22.5671 189.662 22.5463C189.662 22.5307 189.618 22.5151 189.582 22.4969L189.41 22.5333C189.283 22.5073 189.355 22.4787 189.499 22.4528C189.462 22.4138 189.584 22.3774 190.318 22.3463L190.177 22.3749C191.301 22.2839 193.238 22.206 194.078 22.1826L194.104 22.3385C195.089 22.2114 196.081 22.1464 197.074 22.1437C197.74 22.1437 198.478 22.1229 199.251 22.1177C189.368 22.5255 179.536 23.1074 169.864 24.2581L165.776 23.0996H165.256L162.174 22.0424L151.251 21.2475L121.781 22.3281C113.931 22.4268 106.077 22.5454 98.2199 22.684C88.667 23.0528 79.1167 23.4702 69.569 23.936C64.7969 24.175 60.0196 24.3932 55.2059 24.7517C50.3622 25.0827 45.5387 25.6619 40.7544 26.4869C40.0782 26.6661 39.3994 26.8272 38.7259 27.022L36.7078 27.5987C33.6804 28.1361 30.7016 28.9179 27.8007 29.9366C26.1991 30.4781 24.6405 31.1389 23.1379 31.9134C21.5086 32.7444 20.006 33.8027 18.6752 35.0565C17.29 36.3903 16.1825 37.9847 15.4167 39.7478C14.6857 41.462 14.2377 43.2831 14.0904 45.1405C13.9481 46.8776 13.9734 48.6243 14.1658 50.3566C14.3348 52.0346 14.6131 53.6426 14.9225 55.1908L15.2346 55.3856C15.6559 57.1 15.851 57.8845 15.9368 58.3651C16.0226 58.8456 16.02 59.0093 16.1188 59.4275C16.3808 60.417 16.7288 61.3819 17.1591 62.3109C17.4422 62.8982 17.8064 63.4429 18.2409 63.9292C18.7425 64.4782 19.3503 64.9201 20.0275 65.228C20.6355 65.4946 21.2796 65.6696 21.939 65.7475C22.4673 65.8093 22.9986 65.8423 23.5305 65.8462L26.2326 65.88L37.0251 66.0047L47.7968 66.1268L50.4832 66.1554H50.9305H52.0462C52.0462 66.1554 52.0748 66.1554 52.0696 66.1554L52.0436 66.171L51.9942 66.2021L51.8979 66.2697C51.7355 66.3864 51.5856 66.5196 51.4507 66.6671C51.4142 66.7034 51.383 66.7424 51.3466 66.7814L51.2972 66.8411L51.2114 66.9528L50.9513 67.2957C50.8109 67.4672 50.6705 67.6828 50.5352 67.8776L50.1243 68.4777C49.9943 68.6777 49.8799 68.8829 49.7577 69.0855C49.3006 69.8682 48.8891 70.6765 48.525 71.5065L47.958 72.7222C47.958 72.7222 47.1492 73.8418 50.6522 74.0626C51.097 74.0885 51.5182 74.2106 51.9733 74.2704C52.4284 74.3301 52.92 74.3769 53.4037 74.4132L55.3516 74.5769L56.9743 74.686C58.0536 74.7639 59.1328 74.8055 60.2069 74.8548C61.2809 74.9042 62.3524 74.9224 63.4186 74.9587C64.4849 74.9951 65.5511 74.9951 66.6096 74.9977C75.0901 75.0367 83.2977 74.5951 91.1489 74.3327C92.5272 74.3483 95.3098 74.273 98.0118 74.1872L101.83 74.0807C102.963 74.0807 103.892 74.0807 104.43 74.1041C113.688 73.4963 123.526 73.4028 132.824 73.3846L132.47 73.4158L136.849 73.3508C137.037 73.3716 137.057 73.4027 136.917 73.4209C141.858 73.1793 149.644 73.4209 155.698 73.543L155.345 73.5716C173.005 73.6677 190.052 73.7119 207.079 73.4313L213.463 73.3196L219.85 73.1612L223.049 73.0833L226.25 72.9767L232.669 72.7637L239.11 72.4858C241.264 72.4001 243.419 72.304 245.588 72.1819C249.926 71.9507 254.3 71.6623 258.716 71.1818C263 70.8045 267.256 70.1582 271.459 69.2465C272.005 69.1348 272.551 68.9868 273.098 68.8699C273.644 68.753 274.192 68.6101 274.741 68.4673C275.833 68.1659 276.939 67.888 278.033 67.5373C278.582 67.3685 279.136 67.21 279.685 67.0178C280.234 66.8256 280.78 66.6437 281.331 66.4593C282.492 66.0765 283.629 65.621 284.733 65.0955C285.975 64.5177 287.125 63.7587 288.145 62.8434C288.701 62.3381 289.195 61.7687 289.617 61.1471C289.731 60.9938 289.822 60.8224 289.923 60.6588C290.025 60.4951 290.118 60.3237 290.204 60.1522C290.373 59.8151 290.522 59.4681 290.649 59.1132C291.072 57.8352 291.334 56.5098 291.429 55.1674C291.481 54.5803 291.536 53.9906 291.59 53.4036C291.645 52.8165 291.684 52.2242 291.733 51.6346C291.923 49.2811 292.033 46.8705 291.991 44.4313Z" fill="#9E52FF"/>
</svg>
