<svg width="305" height="93" viewBox="0 0 305 93" fill="none" xmlns="http://www.w3.org/2000/svg">
<path d="M145.918 11.2252L145.536 10.9413C145.336 11.1172 145.528 11.2138 145.918 11.2252Z" fill="#E6E6E6"/>
<path d="M178.58 8.46095C178.001 8.26208 176.829 8.31844 176.047 8.3863C176.824 8.50009 177.798 8.5288 178.58 8.46095Z" fill="#E6E6E6"/>
<path d="M101.298 16.0004L99.5627 15.3129C99.7495 15.5912 100.524 15.7958 101.298 16.0004Z" fill="#E6E6E6"/>
<path d="M183.489 7.42402C183.873 7.61715 184.653 7.64011 185.238 7.65734C184.851 7.55503 184.269 7.44699 183.489 7.42402Z" fill="#E6E6E6"/>
<path d="M12.4612 71.4622C13.038 71.7519 13.2356 71.6668 13.4358 71.4909C13.046 71.4794 12.8537 71.3829 12.4612 71.4622Z" fill="#E6E6E6"/>
<path d="M33.6774 26.7341L33.875 26.6483C33.6801 26.6426 33.6801 26.6426 33.2903 26.6311L33.6774 26.7341Z" fill="#E6E6E6"/>
<path d="M9.98416 36.3052C9.98684 36.2144 9.98956 36.1235 9.79877 36.027C9.79342 36.2087 9.79337 36.2087 9.98416 36.3052Z" fill="#E6E6E6"/>
<path d="M53.5336 21.5917C53.7339 21.4158 54.1264 21.3364 54.3267 21.1605L53.5336 21.5917Z" fill="#E6E6E6"/>
<path d="M76.2685 84.1576L74.087 85.3658C79.1709 84.9703 75.2779 84.6738 80.3565 84.4599C78.9813 84.7829 82.4898 84.8863 79.5527 85.2542C86.1772 85.5403 84.4256 85.3978 90.2705 85.6609L90.6977 84.401C92.6523 84.2768 93.4159 84.8446 93.9926 85.1343C93.2103 85.2021 92.0434 85.0769 92.0381 85.2585C94.345 86.4171 95.568 84.6354 98.2701 85.6239C97.5011 85.2377 96.7375 84.6698 99.0819 84.5571C98.4757 85.2664 101.987 85.279 102.761 85.4836C102.187 85.1031 108.037 85.1845 108.061 84.3672C110.972 84.9074 107.263 84.9799 107.25 85.434C109.231 84.4017 116.624 85.074 118.595 84.4049C118.592 84.4957 118.787 84.5015 118.784 84.5923C121.537 83.8554 126.229 83.5391 131.529 82.4228L129.748 83.2792C135.598 83.3607 132.725 81.5492 137.414 81.3237C136.797 82.3962 145.037 80.8212 143.438 82.1375C145.406 81.5592 147.563 81.1683 149.141 80.5785C149.729 80.505 150.313 80.5222 150.901 80.4486C150.105 80.9705 146.962 81.696 149.691 81.7764L153.421 80.9773L154.38 81.5509C154.393 81.0969 157.91 80.9278 157.531 80.5531C158.486 81.2175 160.23 81.6324 160.217 82.0865C162.569 81.7013 166.457 82.1794 168.232 81.5046L168.614 81.7885C170.606 80.393 176.048 81.0986 176.87 79.6686L178.608 80.2652C181.543 79.9881 181.372 79.165 181.973 78.6374C183.34 78.5868 184.905 78.4511 186.272 78.4005C186.061 78.9396 190.942 78.8107 191.908 79.1119C193.863 78.9877 199.531 78.6094 200.92 77.8322C198.749 78.6772 200.493 79.0921 196.191 79.4198C198.888 80.59 202.452 78.7863 207.333 78.6574L207.51 79.2989C213.186 78.6481 213.798 77.7572 215.584 76.7191C215.974 76.7306 216.561 76.657 216.951 76.6685C217.328 77.1341 216.54 77.3835 215.349 78.0756C220.024 78.3042 226.881 77.3247 231.957 77.2015C233.701 77.6165 232.713 78.0418 231.143 78.3591C236.24 77.5095 242.864 77.7956 245.639 76.3322C244.451 76.9334 247.778 76.577 249.919 76.7309C249.732 76.4528 250.133 76.101 250.328 76.1068C253.275 75.3756 260.324 74.4926 264.217 74.7891L263.035 75.2087C267.331 75.0626 270.276 74.4222 273.416 73.7876C274.003 73.714 274.396 73.6347 274.986 73.4703C276.158 73.4139 277.525 73.3633 278.7 73.2162C280.655 73.092 282.804 72.9735 284.767 72.5769C285.351 72.5941 285.343 72.8666 285.335 73.139C285.327 73.4114 285.517 73.5988 287.287 73.1056C287.885 72.6688 287.509 72.2032 287.52 71.84C287.522 71.7492 287.522 71.7492 287.525 71.6584C288.318 71.2273 288.721 70.7847 289.322 70.2571L290.481 70.6548C290.299 70.1949 290.115 69.826 289.931 69.457C290.136 69.0995 290.342 68.742 290.548 68.3845C290.759 67.8453 291.167 67.2211 291.378 66.682C291.99 65.7911 292.406 64.8945 292.625 64.0829C294.708 59.5997 296.599 55.02 297.902 50.5139C298.482 50.7127 299.058 51.0024 299.432 51.5587C299.854 50.4805 298.904 49.6345 298.535 48.8965C298.73 48.9022 298.922 48.9988 299.117 49.0045C299.123 48.8229 298.93 48.7263 298.543 48.624C298.546 48.5332 298.549 48.4424 298.554 48.2608C299.339 48.1021 299.149 47.9148 298.768 47.6309C298.77 47.5401 298.773 47.4492 298.776 47.3584C298.776 47.3584 298.776 47.3584 298.778 47.2676C299.165 47.3699 299.36 47.3757 300.145 47.217C299.755 47.2055 299.366 47.194 298.976 47.1826C299.173 47.0975 299.176 47.0067 299.371 47.0124C299.179 46.9159 298.987 46.8193 298.992 46.6377C298.992 46.6377 298.995 46.5469 299.189 46.5526L298.995 46.5469C299.203 46.0985 299.216 45.6445 299.23 45.1904C299.82 45.026 300.023 44.7593 299.449 44.3789C299.67 43.4765 299.895 42.4833 299.921 41.5752C300.503 41.6832 301.283 41.7062 302.45 41.8315C301.481 41.6211 300.706 41.4165 300.127 41.2177C300.132 41.0361 300.138 40.8544 300.338 40.6785L302.082 41.0935C302.482 40.7417 301.716 40.2647 300.365 39.7704C300.375 39.4072 300.383 39.1347 300.589 38.7772C300.784 38.783 300.976 38.8795 301.171 38.8853L300.803 38.1473L303.134 38.4886C301.193 38.1588 301.98 37.9093 300.619 37.7783C300.629 37.415 300.64 37.0518 300.843 36.7851L301.04 36.7L302.018 36.6379C301.628 36.6265 301.433 36.6207 301.043 36.6092C301.241 36.5242 301.243 36.4334 301.246 36.3425L302.023 36.4563L301.246 36.3425C301.249 36.2517 301.251 36.1609 301.254 36.0701C301.449 36.0758 301.641 36.1724 301.641 36.1724C302.234 35.9172 301.652 35.8092 300.68 35.6896C300.683 35.5988 300.685 35.508 300.685 35.508C301.465 35.531 302.247 35.4631 302.643 35.293C302.838 35.2987 302.837 35.2987 302.837 35.2987C302.854 34.7539 303.07 34.0331 301.524 33.5331C302.111 33.4595 302.888 33.5733 303.468 33.7721C304.461 33.1652 302.127 32.9147 303.9 32.3307L302.918 32.5744C301.567 32.0801 301.393 31.3479 303.161 30.9455L303.743 31.0535C302.197 30.5535 305.139 30.004 303.78 29.7822C302.995 29.9408 302.416 29.742 301.628 29.9915L301.057 29.5202C301.062 29.3385 301.07 29.0661 301.076 28.8845L302.638 28.8396L301.679 28.266C300.897 28.3338 301.887 27.8177 300.918 27.6074C300.921 27.5166 300.921 27.5165 300.924 27.4257C301.508 27.443 302.28 27.7384 303.06 27.7614C302.288 27.4659 303.46 27.4096 301.909 27.0912L304.261 26.7061L302.726 25.8428C302.921 25.8486 303.116 25.8543 303.311 25.86C301.37 25.5302 304.12 24.8841 301.207 24.4347C301.217 24.0714 301.225 23.799 301.236 23.4357C301.258 22.7093 301.084 21.977 300.716 21.239C300.913 21.154 301.111 21.0689 301.308 20.9838C300.919 20.9723 300.724 20.9666 300.336 20.8643C300.147 20.6769 299.957 20.4896 299.77 20.2114C299.196 19.8309 298.825 19.1837 298.262 18.44C298.47 17.9917 298.679 17.5434 299.277 17.1066L297.704 17.5147L297.512 17.4181C297.322 17.2307 297.133 17.0434 296.943 16.856C297.528 16.8732 298.31 16.8054 298.895 16.8226C298.31 16.8054 297.533 16.6916 296.561 16.5721C296.179 16.2882 295.798 16.0042 295.218 15.8054C295.814 15.4594 296.799 15.1248 294.85 15.0674C295.047 14.9823 295.05 14.8915 295.245 14.8973C293.875 15.0387 293.309 14.3858 291.955 13.9823C292.546 13.8179 293.331 13.6593 294.116 13.5006L294.489 14.057C295.088 13.6202 294.703 13.4271 294.118 13.4098C293.536 13.3018 292.559 13.3639 292.369 13.1765C291.008 13.0455 290.201 13.9307 289.419 13.9985C289.229 13.8111 288.444 13.9698 288.65 13.6123C288.471 13.0617 290.241 12.5685 291.029 12.319C288.866 12.8915 288.872 12.7099 286.922 12.6525C287.521 12.2156 287.916 12.0455 288.111 12.0512C287.721 12.0398 287.131 12.2041 286.343 12.4536L286.557 11.8237C285.814 10.5293 282.813 13.0767 281.47 12.31C282.06 12.1456 281.478 12.0376 281.091 11.9353C280.509 11.8273 279.732 11.7135 279.743 11.3502C280.525 11.2824 280.568 9.82942 281.558 9.31326C280.018 8.63163 279.772 10.3513 278.408 10.3111C278.808 9.95934 279.406 9.52252 279.807 9.17076C278.042 9.48232 279.008 9.78346 277.249 9.9134C277.842 9.65819 276.872 9.44787 277.855 9.20414C276.111 8.78921 276.496 8.98232 275.14 8.66969L274.322 9.91808C273.735 9.99166 273.751 9.4468 273.759 9.17436C273.954 9.18011 274.341 9.2824 274.346 9.10077C274.186 7.91448 273.161 9.61118 272.803 8.50995C272.79 8.96401 272.774 9.50889 272.189 9.49166C272.6 8.77665 271.433 8.65137 271.639 8.29386C271.818 8.84448 270.269 8.43529 269.855 9.24111C269.289 8.5882 270.264 8.61691 270.47 8.2594C269.66 9.23537 267.936 8.18475 267.335 8.7124C267.337 8.62159 267.34 8.53079 267.34 8.53079C266.544 9.05269 265.177 9.10329 263.591 9.96546L264.197 9.25621C262.844 8.85276 262.982 10.7655 261.813 10.7311C262.235 9.65282 259.864 10.6737 260.481 9.60115C259.682 10.2139 258.897 10.3725 258.481 11.2691C257.915 10.6162 259.888 9.85636 258.921 9.55521L257.931 10.0714L257.752 9.52075C257.738 9.97481 256.764 9.94609 256.753 10.3093C256.58 9.5771 256.203 9.11156 256.414 8.57243C255.824 8.73683 254.868 8.07242 254.265 8.69087L254.275 8.32763C253.653 9.58177 252.318 8.54265 252.086 9.80827L251.717 9.07027C250.737 9.22318 250.895 10.5003 250.494 10.8521C250.102 10.9314 249.709 11.0107 249.322 10.9084C250.518 10.0348 248.767 9.89225 248.39 9.42671C247.806 9.40948 246.439 9.46011 246.03 10.0843C246.636 9.37504 246.262 8.81869 247.237 8.8474C246.69 7.5588 245.67 9.07388 244.308 8.94286L244.327 8.3072C242.559 8.70957 242.724 9.71424 241.913 10.781C241.739 10.0488 241.744 9.86715 242.158 9.06133C241.002 8.57281 239.232 9.066 237.868 9.0258C237.494 8.46945 237.697 8.20274 238.095 7.94179C236.906 8.54302 235.171 7.85564 234.354 9.10404C234.565 8.56491 233.78 8.72356 233.2 8.52471C233.192 8.79714 233.181 9.1604 233.184 9.06958C232.388 9.59148 230.813 10.0904 229.657 9.60191L229.863 9.24441C228.696 9.11914 227.895 9.82265 227.102 10.2537C226.127 10.225 225.152 10.1963 224.375 10.0825C224.386 9.71927 224.592 9.36178 224.007 9.34455C223.807 9.52043 223.799 9.79288 223.793 9.9745C223.211 9.86646 222.632 9.6676 222.445 9.38942L221.836 10.1895C214.817 10.0736 221.695 8.36752 213.129 7.75159C213.711 7.85963 214.293 7.96766 214.873 8.16652C213.313 8.12057 211.933 8.62526 210.189 8.21032C209.613 7.92066 210.785 7.8643 211.57 7.70565C209.22 7.99998 206.678 8.19774 204.521 8.58863C204.342 8.03802 204.545 7.77133 205.92 7.44829C199.485 7.34959 207.239 9.03228 199.255 8.52439C197.902 8.12095 199.661 7.99101 200.839 7.75303C197.157 6.91742 194.601 7.56927 191.074 8.10159C190.901 7.36935 193.434 7.44399 190.329 6.89804C191.098 7.28426 191.467 8.02226 189.125 8.04416C190.124 7.25557 187.186 7.62348 184.85 7.46376C185.427 7.75342 185.221 8.11092 184.436 8.26957C183.261 8.41674 182.295 8.1156 180.73 8.25128L183.635 8.97309C179.905 9.77209 177.398 8.78931 174.282 8.60661C174.482 8.43073 174.875 8.35141 175.462 8.27783C173.903 8.23189 172.154 7.99859 170.4 7.94691C168.645 7.89522 166.886 8.02515 164.92 8.51259L165.313 8.43326C158.253 9.67951 168.012 9.51259 159.778 10.906C156.849 11.0015 160.05 8.27822 153.96 9.73481C155.709 9.96812 154.721 10.3935 153.145 10.8924C151.375 11.3856 148.822 11.9466 147.057 12.2582L150.037 10.4373C148.473 10.5729 146.112 11.2305 145.335 11.1167L145.717 11.4006C146.657 12.6099 140.831 11.7111 138.654 12.7377C140.86 10.7122 141.242 10.9961 140.903 9.25922C138.916 10.4732 136.347 11.5791 131.653 11.9861L134.631 10.256C128.18 10.7022 122.052 13.4301 117.707 15.2108C118.327 14.0475 116.183 13.9843 117.774 12.9405L112.087 13.9546L113.099 12.7119C111.497 14.1189 108.191 13.7489 109.713 15.0662C110.306 14.811 110.116 14.6236 111.288 14.5673C111.47 15.0271 111.051 16.0145 107.919 16.3767C105.58 16.3078 108.72 15.6732 107.948 15.3778C106.362 16.2399 105.609 15.3089 103.833 15.9837L106.164 16.325C105.355 17.301 102.835 16.7722 101.059 17.4471C103.225 16.7837 102.066 16.386 100.904 16.0791L101.097 16.1757C99.7241 16.4079 98.138 17.2701 96.7816 16.9575L97.209 15.6976L95.6148 16.8322C94.6402 16.8035 93.8686 16.5081 95.0515 16.0885C87.8262 16.3301 96.9337 18.4162 87.5617 18.6854C87.3801 18.2256 88.1732 17.7945 90.7098 17.7784C90.5363 17.0461 89.7646 16.7507 87.2254 16.8577C87.2254 16.8577 87.228 16.7669 87.0331 16.7611C82.5286 17.3556 76.4567 18.1765 74.0803 19.3789C72.9135 19.2536 73.7065 18.8225 74.4996 18.3915C69.0258 18.7755 68.2087 20.0239 62.3505 20.2149L65.082 20.2045C62.1234 21.2989 56.0382 22.5739 52.3401 22.2831L52.9383 21.8463C50.3669 23.043 44.1296 22.8592 43.3232 23.7444C45.0774 23.7961 43.8919 24.3065 46.2362 24.1938C43.8731 24.9422 41.3124 25.7756 38.9494 26.524L37.2219 25.5642C36.039 25.9838 34.6612 26.3977 33.4757 26.9081C34.2526 27.0219 32.6853 27.2484 31.3075 27.6622C29.7348 28.0703 28.1593 28.5693 28.9256 29.0463C26.1861 29.3292 28.7602 28.0416 29.1687 27.4175C27.1901 28.359 26.4211 27.9727 25.0193 29.2039C23.8498 29.1694 22.6803 29.135 21.5108 29.1005C19.9247 29.9627 18.3359 30.9157 16.7472 31.8687C16.9474 31.6928 16.36 31.7664 16.5603 31.5905C15.9488 32.4814 14.1758 33.0654 12.5924 33.8367C11.009 34.6081 9.42019 35.5611 9.77257 36.844C9.77525 36.7532 9.58032 36.7474 9.58299 36.6566C9.7565 37.3888 8.75785 38.1774 7.75651 39.0568C6.75785 39.8454 5.75647 40.7248 5.15834 41.1617C4.52008 42.9607 6.68828 42.2065 7.65751 42.4169C6.02861 44.732 5.80957 45.5436 5.78816 46.2701C5.96168 47.0024 6.33283 47.6495 7.44347 49.6818C6.04427 50.8222 4.89613 50.0612 3.94028 49.3969C2.98442 48.7325 2.22348 48.0738 1.00582 49.674C2.35686 50.1682 3.26992 52.2856 3.97735 54.7605C3.55541 55.8388 3.5099 57.3826 3.46441 58.9264C3.41893 60.4702 3.37349 62.014 3.14111 63.2796L4.7138 62.8715C5.65896 63.8991 6.60412 64.9268 7.74687 65.8694C6.39583 65.3751 5.2397 64.8866 3.88866 64.3923C4.84987 64.8751 7.14875 66.3062 8.87892 67.1752C11.1778 68.6063 10.7692 69.2305 10.5582 69.7696C10.3473 70.3087 9.94403 70.7513 12.8464 71.5639C12.841 71.7455 12.8384 71.8364 12.6408 71.9214C14.7742 72.3479 17.6418 74.341 22.277 75.9319C21.2997 75.994 20.3224 76.0561 19.1502 76.1124L16.6564 74.6756C16.635 75.4021 17.7912 75.8906 19.3372 76.3906C20.8858 76.7998 22.8243 77.2205 24.1753 77.7147C27.6651 78.4538 27.1151 77.256 29.2538 77.5008C30.2177 77.8927 32.1615 78.1318 32.9278 78.6088C35.435 79.5916 31.9184 79.7607 30.546 79.9929C34.0679 79.6422 34.8342 80.1193 40.6656 80.8364C40.6496 81.3813 40.0595 81.5457 39.0875 81.4261C40.4493 81.5571 41.6215 81.5008 42.6068 81.1663L44.1393 82.1203C47.0363 83.1146 49.1911 82.8145 51.151 82.5087C53.3058 82.2086 55.2684 81.812 59.1533 82.3809C57.9785 82.5281 59.73 82.6706 61.8688 82.9154C64.0102 83.0694 66.9312 83.2463 68.09 83.644C65.3585 83.6544 69.2114 85.3131 67.2462 85.8005C74.653 86.0188 71.1953 84.19 76.2685 84.1576ZM260.953 13.4325C260.758 13.4267 260.758 13.4267 260.563 13.421C260.566 13.3302 260.763 13.2451 260.766 13.1543C260.958 13.2509 260.956 13.3417 260.953 13.4325ZM254.323 13.328C254.128 13.3223 253.933 13.3165 253.738 13.3108L253.746 13.0384C254.342 12.6924 254.334 12.9648 254.323 13.328ZM240.289 12.9145C239.899 12.9031 239.509 12.8916 239.12 12.8801C239.32 12.7042 239.523 12.4375 240.308 12.2789C240.11 12.3639 240.297 12.6421 240.289 12.9145Z" fill="#E6E6E6"/>
<path d="M87.4319 16.5005C89.7816 16.2062 91.9364 15.906 92.7268 15.5657C92.1447 15.4577 86.671 15.8418 87.4319 16.5005Z" fill="#E6E6E6"/>
<path d="M251.285 76.7711C251.092 76.6745 250.705 76.5722 250.121 76.555C250.112 76.8275 250.5 76.9298 251.285 76.7711Z" fill="#E6E6E6"/>
<path d="M158.042 83.1142C159.617 82.6152 160.213 82.2692 160.221 81.9967C159.046 82.1439 158.255 82.4842 158.042 83.1142Z" fill="#E6E6E6"/>
<path d="M118.982 84.5972C118.784 84.6822 118.392 84.7616 118.197 84.7558C118.784 84.6822 118.979 84.688 118.982 84.5972Z" fill="#E6E6E6"/>
<path d="M33.4739 79.9885C34.4485 80.0172 35.6127 80.2333 36.7795 80.3586C37.9437 80.5747 39.1078 80.7908 40.0824 80.8195C39.1078 80.7908 37.9463 80.4839 36.7849 80.1769C35.6207 79.9608 34.4539 79.8355 33.4739 79.9885Z" fill="#E6E6E6"/>
<path d="M275.353 74.2993L275.358 74.1177L273.582 74.7926L275.353 74.2993Z" fill="#E6E6E6"/>
<path d="M253.64 76.2953C254.625 75.9607 255.605 75.8077 256.588 75.564C255.811 75.4502 252.673 75.9941 253.64 76.2953Z" fill="#E6E6E6"/>
<path d="M184.498 79.0752L183.891 79.7845L185.469 79.1947L184.498 79.0752Z" fill="#E6E6E6"/>
<path d="M299.783 46.2969C299.393 46.2854 299.196 46.3705 298.998 46.4555C299.388 46.467 299.781 46.3877 299.783 46.2969Z" fill="#E6E6E6"/>
<path d="M295.243 14.9891C295.438 14.9948 295.636 14.9098 296.028 14.8304C295.638 14.819 295.441 14.904 295.243 14.9891Z" fill="#E6E6E6"/>
<path d="M303.75 30.8727C303.945 30.8784 304.137 30.9757 304.332 30.9814L303.75 30.8727Z" fill="#E6E6E6"/>
<path d="M303.217 35.7646C303.804 35.691 304.6 35.169 303.04 35.123C302.837 35.3898 302.832 35.5714 303.217 35.7646Z" fill="#E6E6E6"/>
<path d="M233.4 8.34935C233.398 8.44018 233.59 8.53673 233.782 8.6333C233.595 8.35509 233.601 8.17345 233.4 8.34935Z" fill="#E6E6E6"/>
<path d="M256.615 8.48769C256.812 8.40261 257.21 8.14162 257.424 7.5116C256.826 7.94848 256.623 8.21522 256.615 8.48769Z" fill="#E6E6E6"/>
<path d="M267.34 8.6221C267.342 8.53127 267.536 8.53699 267.539 8.44617C267.539 8.44617 267.342 8.53127 267.34 8.6221Z" fill="#E6E6E6"/>
<path d="M290.256 12.1143C289.276 12.2672 288.696 12.0684 287.917 12.0454C288.699 11.9775 289.073 12.534 290.256 12.1143Z" fill="#E6E6E6"/>
<path d="M227.321 9.44226L227.316 9.62392L227.725 8.99963L227.321 9.44226Z" fill="#E6E6E6"/>
<path d="M232.804 8.69476C232.601 8.96149 232.401 9.1374 232.009 9.21674C232.201 9.31331 232.991 8.97298 232.804 8.69476Z" fill="#E6E6E6"/>
<path d="M250.136 9.84182L250.35 9.21179L249.944 9.74525L250.136 9.84182Z" fill="#E6E6E6"/>
<path d="M293.991 44.4315C293.957 41.9775 293.744 39.5293 293.354 37.1061C293.328 36.8828 293.273 36.5191 293.195 36.0359C293.117 35.5528 292.982 34.9553 292.839 34.2514C292.519 32.8564 292.046 31.0718 291.396 29.0561C291.035 27.8679 290.558 26.7177 289.973 25.622C289.226 24.3212 288.244 23.17 287.076 22.2269C285.909 21.3109 284.622 20.5592 283.251 19.9929C281.938 19.4515 280.584 19.0171 279.202 18.6941C277.847 18.372 276.541 18.1538 275.238 17.9382C274.588 17.8447 273.938 17.7408 273.301 17.6603L271.397 17.4395C268.893 17.1797 266.526 17.0706 264.443 17.0238C260.282 16.9381 257.245 17.1096 256.399 17.1641C257.884 17.2135 259.372 17.2914 260.857 17.3901C257.281 17.4421 254.202 17.5979 251.401 17.7616C248.6 17.9252 246.07 18.1175 243.638 18.2811C238.773 18.6136 234.146 18.8474 228.149 19.2266L228.81 19.1305C227.054 19.1305 226.121 19.9098 206.704 19.6942V19.663C206.142 19.7145 205.577 19.7353 205.011 19.7254L208.052 19.7903C206.047 19.9436 204.299 20.1488 201.62 20.2839C201.051 20.2839 200.853 20.2163 200.796 20.1696C198.606 20.2709 196.417 20.4034 194.227 20.5255L192.198 20.4345C190.193 20.6605 191.137 21.019 185.746 21.1385C186.771 21.2216 186.105 21.3073 185.27 21.3983C184.436 21.4892 183.432 21.5775 183.767 21.6269C183.507 21.6113 182.875 21.6035 182.376 21.5931C180.779 21.7204 178.475 21.9853 176.394 22.2165C174.314 22.4763 172.444 22.7542 171.713 22.9101L173.726 22.7932L175.859 22.6711C176.639 22.6243 177.515 22.601 178.405 22.5646L181.107 22.4711L183.707 22.4217C185.356 22.3905 186.771 22.4009 187.608 22.4217C183.117 22.6399 186.428 22.536 187.32 22.5776L187.613 22.4841C190.305 22.3776 190.315 22.5672 191.663 22.5464C191.663 22.5308 191.618 22.5152 191.582 22.4971L191.41 22.5334C191.283 22.5075 191.356 22.4789 191.499 22.4529C191.462 22.4139 191.585 22.3775 192.318 22.3464L192.178 22.375C193.301 22.2841 195.238 22.2061 196.078 22.1827L196.104 22.3386C197.089 22.2116 198.081 22.1465 199.074 22.1438C199.74 22.1438 200.479 22.123 201.251 22.1178C191.369 22.5256 181.536 23.1075 171.864 24.2583L167.776 23.0997H167.256L164.174 22.0425L153.252 21.2476L123.782 22.3282C115.931 22.4269 108.077 22.5455 100.22 22.6841C90.6673 23.0529 81.117 23.4703 71.5693 23.9361C66.7972 24.1751 62.0199 24.3933 57.2062 24.7518C52.3624 25.0829 47.5389 25.662 42.7546 26.487C42.0785 26.6663 41.3997 26.8273 40.7261 27.0221L38.7081 27.5988C35.6806 28.1362 32.7018 28.918 29.801 29.9367C28.1994 30.4782 26.6407 31.139 25.1381 31.9135C23.5089 32.7445 22.0063 33.8028 20.6755 35.0566C19.2902 36.3905 18.1828 37.9848 17.4169 39.748C16.6859 41.4621 16.238 43.2833 16.0906 45.1406C15.9484 46.8777 15.9736 48.6244 16.166 50.3567C16.3351 52.0348 16.6133 53.6427 16.9228 55.1909L17.2349 55.3857C17.6562 57.1001 17.8512 57.8846 17.937 58.3652C18.0228 58.8457 18.0202 59.0094 18.1191 59.4276C18.381 60.4172 18.7291 61.382 19.1593 62.311C19.4424 62.8983 19.8066 63.443 20.2412 63.9293C20.7428 64.4784 21.3505 64.9202 22.0278 65.2281C22.6357 65.4947 23.2799 65.6698 23.9392 65.7477C24.4675 65.8094 24.9989 65.8424 25.5308 65.8464L28.2328 65.8801L39.0253 66.0048L49.797 66.1269L52.4834 66.1555H52.9308H54.0464C54.0464 66.1555 54.075 66.1555 54.0698 66.1555L54.0438 66.1711L53.9944 66.2022L53.8982 66.2698C53.7358 66.3865 53.5859 66.5197 53.4509 66.6672C53.4145 66.7036 53.3833 66.7425 53.3469 66.7815L53.2974 66.8413L53.2116 66.953L52.9516 67.2958C52.8111 67.4673 52.6707 67.6829 52.5355 67.8777L52.1246 68.4778C51.9945 68.6778 51.8801 68.883 51.7579 69.0856C51.3009 69.8683 50.8893 70.6767 50.5252 71.5066L49.9583 72.7223C49.9583 72.7223 49.1495 73.8419 52.6525 74.0627C53.0972 74.0887 53.5185 74.2107 53.9736 74.2705C54.4287 74.3302 54.9202 74.377 55.4039 74.4134L57.3518 74.577L58.9746 74.6861C60.0538 74.7641 61.1331 74.8056 62.2071 74.8549C63.2812 74.9043 64.3526 74.9225 65.4188 74.9589C66.4851 74.9952 67.5514 74.9952 68.6098 74.9978C77.0904 75.0368 85.2979 74.5952 93.1491 74.3328C94.5274 74.3484 97.3101 74.2731 100.012 74.1874L103.83 74.0809C104.964 74.0809 105.892 74.0808 106.43 74.1042C115.689 73.4964 125.527 73.4029 134.824 73.3847L134.47 73.4159L138.85 73.3509C139.037 73.3717 139.058 73.4029 138.917 73.421C143.858 73.1795 151.645 73.4211 157.699 73.5432L157.345 73.5717C175.006 73.6678 192.053 73.712 209.079 73.4314L215.463 73.3198L221.85 73.1613L225.049 73.0834L228.251 72.9769L234.669 72.7639L241.11 72.4859C243.264 72.4002 245.42 72.3041 247.589 72.182C251.926 71.9508 256.301 71.6625 260.716 71.1819C265.001 70.8046 269.257 70.1583 273.459 69.2467C274.006 69.135 274.552 68.9869 275.098 68.87C275.644 68.7531 276.193 68.6102 276.741 68.4674C277.834 68.166 278.939 67.8881 280.034 67.5374C280.582 67.3686 281.136 67.2101 281.685 67.0179C282.234 66.8257 282.78 66.6438 283.331 66.4594C284.493 66.0767 285.629 65.6212 286.733 65.0956C287.976 64.5178 289.125 63.7588 290.145 62.8435C290.701 62.3382 291.195 61.7688 291.617 61.1472C291.731 60.994 291.822 60.8226 291.924 60.6589C292.025 60.4953 292.119 60.3238 292.205 60.1523C292.373 59.8152 292.522 59.4682 292.649 59.1133C293.072 57.8354 293.334 56.51 293.429 55.1675C293.481 54.5804 293.536 53.9908 293.591 53.4037C293.645 52.8166 293.684 52.2244 293.734 51.6347C293.924 49.2812 294.033 46.8706 293.991 44.4315Z" fill="#FF6E00"/>
</svg>
