<svg width="305" height="93" viewBox="0 0 305 93" fill="none" xmlns="http://www.w3.org/2000/svg">
<path d="M145.92 11.2252L145.538 10.9413C145.338 11.1172 145.53 11.2138 145.92 11.2252Z" fill="#6A6A6A"/>
<path d="M178.581 8.46095C178.001 8.26208 176.829 8.31844 176.047 8.3863C176.824 8.50009 177.799 8.5288 178.581 8.46095Z" fill="#6A6A6A"/>
<path d="M101.299 16.0004L99.5631 15.3129C99.75 15.5912 100.524 15.7958 101.299 16.0004Z" fill="#6A6A6A"/>
<path d="M183.49 7.42402C183.874 7.61715 184.654 7.64011 185.239 7.65734C184.852 7.55503 184.27 7.44699 183.49 7.42402Z" fill="#6A6A6A"/>
<path d="M12.4617 71.4622C13.0384 71.7519 13.236 71.6668 13.4363 71.4909C13.0465 71.4794 12.8542 71.3829 12.4617 71.4622Z" fill="#6A6A6A"/>
<path d="M33.6784 26.7341L33.876 26.6483C33.6811 26.6426 33.6811 26.6426 33.2912 26.6311L33.6784 26.7341Z" fill="#6A6A6A"/>
<path d="M9.98514 36.3051C9.98781 36.2143 9.99054 36.1234 9.79975 36.0269C9.7944 36.2085 9.79435 36.2086 9.98514 36.3051Z" fill="#6A6A6A"/>
<path d="M53.5351 21.5917C53.7354 21.4158 54.1279 21.3364 54.3281 21.1605L53.5351 21.5917Z" fill="#6A6A6A"/>
<path d="M76.269 84.1577L74.0875 85.3658C79.1714 84.9703 75.2784 84.6738 80.3569 84.4599C78.9818 84.7829 82.4903 84.8863 79.5532 85.2542C86.1777 85.5403 84.4261 85.3978 90.271 85.6609L90.6982 84.401C92.6527 84.2768 93.4164 84.8446 93.9931 85.1343C93.2108 85.2021 92.0439 85.0769 92.0386 85.2585C94.3455 86.4171 95.5685 84.6354 98.2705 85.6239C97.5016 85.2377 96.738 84.6698 99.0824 84.5571C98.4762 85.2664 101.987 85.279 102.762 85.4836C102.188 85.1031 108.038 85.1845 108.062 84.3672C110.972 84.9074 107.263 84.9799 107.25 85.434C109.231 84.4017 116.625 85.074 118.595 84.4049C118.593 84.4957 118.788 84.5015 118.785 84.5923C121.538 83.8554 126.229 83.5391 131.529 82.4228L129.749 83.2792C135.599 83.3607 132.726 81.5492 137.414 81.3237C136.798 82.3962 145.038 80.8212 143.438 82.1375C145.406 81.5592 147.564 81.1683 149.142 80.5785C149.729 80.505 150.314 80.5222 150.901 80.4486C150.106 80.9705 146.963 81.696 149.692 81.7764L153.422 80.9773L154.38 81.5509C154.394 81.0969 157.91 80.9278 157.531 80.5531C158.487 81.2175 160.23 81.6324 160.217 82.0865C162.569 81.7013 166.457 82.1794 168.233 81.5046L168.615 81.7885C170.607 80.393 176.048 81.0986 176.871 79.6686L178.609 80.2652C181.543 79.9881 181.372 79.165 181.973 78.6374C183.34 78.5868 184.905 78.4511 186.272 78.4005C186.061 78.9396 190.942 78.8107 191.909 79.1119C193.863 78.9877 199.532 78.6094 200.92 77.8323C198.75 78.6772 200.493 79.0921 196.192 79.4198C198.888 80.59 202.453 78.7863 207.334 78.6574L207.51 79.2989C213.187 78.6481 213.798 77.7572 215.585 76.7191C215.974 76.7306 216.562 76.657 216.952 76.6685C217.328 77.1341 216.541 77.3835 215.35 78.0756C220.025 78.3042 226.882 77.3247 231.958 77.2015C233.701 77.6165 232.713 78.0418 231.143 78.3591C236.24 77.5095 242.865 77.7956 245.639 76.3322C244.451 76.9334 247.778 76.577 249.919 76.7309C249.733 76.4528 250.133 76.101 250.328 76.1068C253.276 75.3756 260.325 74.4926 264.218 74.7891L263.035 75.2087C267.331 75.0626 270.276 74.4222 273.416 73.7876C274.004 73.714 274.396 73.6347 274.987 73.4703C276.159 73.414 277.526 73.3633 278.701 73.2162C280.655 73.092 282.805 72.9735 284.767 72.5769C285.352 72.5941 285.344 72.8666 285.336 73.139C285.328 73.4114 285.517 73.5988 287.288 73.1056C287.886 72.6688 287.509 72.2032 287.52 71.84C287.523 71.7492 287.523 71.7492 287.525 71.6584C288.319 71.2273 288.722 70.7847 289.323 70.2571L290.481 70.6548C290.3 70.1949 290.116 69.826 289.931 69.457C290.137 69.0995 290.343 68.742 290.548 68.3845C290.759 67.8453 291.168 67.2211 291.379 66.682C291.99 65.7911 292.407 64.8945 292.626 64.0829C294.709 59.5997 296.599 55.02 297.903 50.5139C298.482 50.7127 299.059 51.0024 299.433 51.5587C299.855 50.4805 298.904 49.6345 298.536 48.8965C298.731 48.9022 298.923 48.9988 299.118 49.0045C299.123 48.8229 298.931 48.7263 298.544 48.624C298.546 48.5332 298.549 48.4424 298.554 48.2608C299.339 48.1021 299.15 47.9148 298.768 47.6309C298.771 47.5401 298.773 47.4492 298.776 47.3584C298.776 47.3584 298.776 47.3584 298.779 47.2676C299.166 47.3699 299.361 47.3757 300.146 47.217C299.756 47.2055 299.366 47.194 298.976 47.1826C299.174 47.0975 299.177 47.0067 299.372 47.0124C299.179 46.9159 298.987 46.8193 298.992 46.6377C298.992 46.6377 298.995 46.5469 299.19 46.5526L298.995 46.5469C299.203 46.0985 299.217 45.6445 299.23 45.1904C299.82 45.026 300.023 44.7593 299.449 44.3789C299.671 43.4765 299.895 42.4833 299.922 41.5752C300.504 41.6832 301.284 41.7062 302.45 41.8315C301.481 41.6211 300.707 41.4165 300.127 41.2177C300.133 41.0361 300.138 40.8544 300.338 40.6785L302.082 41.0935C302.483 40.7417 301.716 40.2647 300.365 39.7704C300.376 39.4072 300.384 39.1347 300.59 38.7772C300.784 38.783 300.977 38.8795 301.172 38.8853L300.803 38.1473L303.134 38.4886C301.193 38.1588 301.981 37.9093 300.619 37.7783C300.63 37.415 300.64 37.0518 300.843 36.7851L301.041 36.7L302.018 36.6379C301.628 36.6265 301.433 36.6207 301.044 36.6092C301.241 36.5242 301.244 36.4334 301.247 36.3425L302.024 36.4563L301.247 36.3425C301.249 36.2517 301.252 36.1609 301.255 36.0701C301.45 36.0758 301.642 36.1724 301.642 36.1724C302.235 35.9172 301.652 35.8092 300.681 35.6896C300.683 35.5988 300.686 35.508 300.686 35.508C301.466 35.531 302.248 35.4631 302.643 35.293C302.838 35.2987 302.838 35.2987 302.838 35.2987C302.854 34.7539 303.07 34.0331 301.524 33.5331C302.112 33.4595 302.889 33.5733 303.468 33.7721C304.462 33.1652 302.128 32.9147 303.901 32.3307L302.918 32.5744C301.567 32.0801 301.394 31.3479 303.161 30.9455L303.743 31.0535C302.197 30.5535 305.14 30.004 303.781 29.7822C302.996 29.9408 302.416 29.742 301.629 29.9915L301.057 29.5202C301.063 29.3385 301.071 29.0661 301.076 28.8845L302.638 28.8396L301.68 28.266C300.897 28.3338 301.888 27.8177 300.919 27.6074C300.921 27.5166 300.921 27.5165 300.924 27.4257C301.509 27.443 302.28 27.7384 303.06 27.7614C302.288 27.4659 303.461 27.4096 301.909 27.0912L304.262 26.7061L302.726 25.8428C302.921 25.8486 303.116 25.8543 303.311 25.86C301.37 25.5302 304.12 24.8841 301.207 24.4347C301.218 24.0714 301.226 23.799 301.237 23.4357C301.258 22.7093 301.085 21.977 300.716 21.239C300.914 21.154 301.111 21.0689 301.309 20.9838C300.919 20.9723 300.724 20.9666 300.337 20.8643C300.147 20.6769 299.958 20.4896 299.771 20.2114C299.197 19.8309 298.826 19.1837 298.262 18.44C298.471 17.9917 298.679 17.5434 299.277 17.1066L297.704 17.5147L297.512 17.4181C297.323 17.2307 297.133 17.0434 296.944 16.856C297.528 16.8732 298.311 16.8054 298.895 16.8226C298.311 16.8054 297.534 16.6916 296.562 16.5721C296.18 16.2882 295.798 16.0042 295.219 15.8054C295.814 15.4594 296.799 15.1248 294.85 15.0674C295.048 14.9823 295.051 14.8915 295.245 14.8973C293.876 15.0387 293.31 14.3858 291.956 13.9823C292.546 13.8179 293.331 13.6593 294.116 13.5006L294.49 14.057C295.088 13.6202 294.704 13.4271 294.119 13.4098C293.537 13.3018 292.559 13.3639 292.37 13.1765C291.008 13.0455 290.202 13.9307 289.419 13.9985C289.23 13.8111 288.445 13.9698 288.65 13.6123C288.472 13.0617 290.242 12.5685 291.03 12.319C288.867 12.8915 288.872 12.7099 286.923 12.6525C287.521 12.2156 287.916 12.0455 288.111 12.0512C287.721 12.0398 287.131 12.2041 286.344 12.4536L286.557 11.8237C285.815 10.5293 282.814 13.0767 281.471 12.31C282.061 12.1456 281.479 12.0376 281.091 11.9353C280.509 11.8273 279.732 11.7135 279.743 11.3502C280.525 11.2824 280.568 9.82942 281.559 9.31326C280.018 8.63163 279.773 10.3513 278.408 10.3111C278.809 9.95934 279.407 9.52252 279.807 9.17076C278.042 9.48232 279.009 9.78346 277.249 9.9134C277.842 9.65819 276.873 9.44787 277.855 9.20414C276.112 8.78921 276.496 8.98232 275.14 8.66969L274.323 9.91808C273.735 9.99166 273.751 9.4468 273.76 9.17436C273.954 9.18011 274.342 9.2824 274.347 9.10077C274.187 7.91448 273.161 9.61118 272.804 8.50995C272.79 8.96401 272.774 9.50889 272.189 9.49166C272.601 8.77665 271.434 8.65137 271.64 8.29386C271.818 8.84448 270.27 8.43529 269.856 9.24111C269.29 8.5882 270.264 8.61691 270.47 8.2594C269.661 9.23537 267.936 8.18475 267.335 8.7124C267.338 8.62159 267.341 8.53079 267.341 8.53079C266.545 9.05269 265.178 9.10329 263.592 9.96546L264.198 9.25621C262.844 8.85276 262.983 10.7655 261.813 10.7311C262.235 9.65282 259.864 10.6737 260.481 9.60115C259.683 10.2139 258.898 10.3725 258.481 11.2691C257.915 10.6162 259.888 9.85636 258.922 9.55521L257.931 10.0714L257.752 9.52075C257.739 9.97481 256.764 9.94609 256.754 10.3093C256.58 9.5771 256.204 9.11156 256.415 8.57243C255.824 8.73683 254.869 8.07242 254.265 8.69087L254.276 8.32763C253.654 9.58177 252.319 8.54265 252.086 9.80827L251.718 9.07027C250.738 9.22318 250.895 10.5003 250.495 10.8521C250.102 10.9314 249.71 11.0107 249.323 10.9084C250.519 10.0348 248.767 9.89225 248.391 9.42671C247.806 9.40948 246.439 9.46011 246.03 10.0843C246.637 9.37504 246.263 8.81869 247.237 8.8474C246.69 7.5588 245.67 9.07388 244.308 8.94286L244.327 8.3072C242.559 8.70957 242.725 9.71424 241.913 10.781C241.74 10.0488 241.745 9.86715 242.159 9.06133C241.003 8.57281 239.232 9.066 237.868 9.0258C237.494 8.46945 237.697 8.20274 238.095 7.94179C236.907 8.54302 235.171 7.85564 234.354 9.10404C234.565 8.56491 233.78 8.72356 233.201 8.52471C233.193 8.79714 233.182 9.1604 233.185 9.06958C232.389 9.59148 230.814 10.0904 229.657 9.60191L229.863 9.24441C228.696 9.11914 227.895 9.82265 227.102 10.2537C226.128 10.225 225.153 10.1963 224.376 10.0825C224.387 9.71927 224.592 9.36178 224.008 9.34455C223.807 9.52043 223.799 9.79288 223.794 9.9745C223.212 9.86646 222.632 9.6676 222.445 9.38942L221.837 10.1895C214.817 10.0736 221.695 8.36752 213.13 7.75159C213.712 7.85963 214.294 7.96766 214.873 8.16652C213.314 8.12057 211.933 8.62526 210.19 8.21032C209.613 7.92066 210.785 7.8643 211.57 7.70565C209.221 7.99998 206.679 8.19774 204.521 8.58863C204.342 8.03802 204.545 7.77133 205.92 7.44829C199.485 7.34958 207.239 9.03228 199.256 8.52439C197.902 8.12095 199.662 7.99101 200.839 7.75303C197.157 6.91742 194.602 7.56928 191.075 8.10159C190.901 7.36935 193.435 7.44399 190.33 6.89804C191.099 7.28426 191.467 8.02226 189.125 8.04416C190.124 7.25557 187.187 7.62348 184.851 7.46376C185.427 7.75342 185.222 8.11092 184.437 8.26957C183.262 8.41674 182.295 8.1156 180.731 8.25128L183.636 8.97309C179.905 9.77209 177.398 8.78931 174.282 8.60661C174.483 8.43073 174.875 8.35141 175.463 8.27783C173.903 8.23189 172.154 7.99859 170.4 7.94691C168.646 7.89522 166.886 8.02515 164.921 8.51259L165.313 8.43326C158.254 9.67951 168.013 9.51259 159.778 10.906C156.849 11.0015 160.051 8.27822 153.96 9.73481C155.709 9.96812 154.721 10.3935 153.146 10.8924C151.375 11.3856 148.823 11.9466 147.058 12.2582L150.038 10.4373C148.473 10.5729 146.113 11.2305 145.336 11.1167L145.717 11.4006C146.657 12.6099 140.831 11.7111 138.655 12.7377C140.861 10.7122 141.242 10.9961 140.903 9.25922C138.917 10.4732 136.348 11.5791 131.654 11.9861L134.631 10.256C128.18 10.7022 122.052 13.4301 117.708 15.2108C118.327 14.0475 116.183 13.9843 117.775 12.9405L112.087 13.9546L113.099 12.7119C111.497 14.1189 108.192 13.7489 109.714 15.0662C110.306 14.811 110.117 14.6236 111.289 14.5673C111.47 15.0271 111.051 16.0145 107.919 16.3767C105.58 16.3078 108.72 15.6732 107.949 15.3778C106.363 16.2399 105.61 15.3089 103.834 15.9837L106.165 16.325C105.356 17.301 102.835 16.7722 101.06 17.4471C103.225 16.7837 102.066 16.386 100.905 16.0791L101.097 16.1757C99.7246 16.4079 98.1385 17.2701 96.7821 16.9575L97.2094 15.6976L95.6153 16.8322C94.6407 16.8035 93.8691 16.5081 95.052 16.0885C87.8267 16.3301 96.9342 18.4162 87.5621 18.6854C87.3806 18.2256 88.1737 17.7945 90.7103 17.7784C90.5367 17.0461 89.7651 16.7507 87.2259 16.8577C87.2259 16.8577 87.2285 16.7669 87.0336 16.7611C82.5291 17.3556 76.4572 18.1765 74.0808 19.3789C72.9139 19.2536 73.707 18.8225 74.5001 18.3915C69.0263 18.7755 68.2092 20.0239 62.351 20.2149L65.0825 20.2045C62.1239 21.2989 56.0387 22.5739 52.3406 22.2831L52.9388 21.8463C50.3674 23.043 44.1301 22.8592 43.3237 23.7444C45.0779 23.7961 43.8924 24.3065 46.2367 24.1938C43.8736 24.9422 41.3129 25.7756 38.9499 26.524L37.2224 25.5642C36.0395 25.9838 34.6617 26.3977 33.4761 26.9081C34.2531 27.0219 32.6858 27.2484 31.3079 27.6622C29.7353 28.0703 28.1598 28.5693 28.9261 29.0463C26.1866 29.3292 28.7606 28.0416 29.1692 27.4175C27.1906 28.359 26.4216 27.9727 25.0198 29.2039C23.8503 29.1694 22.6808 29.135 21.5113 29.1005C19.9252 29.9627 18.3364 30.9157 16.7477 31.8687C16.9479 31.6928 16.3605 31.7664 16.5607 31.5905C15.9493 32.4814 14.1763 33.0654 12.5928 33.8367C11.0094 34.6081 9.42069 35.5611 9.77305 36.844C9.77572 36.7532 9.5808 36.7474 9.58348 36.6566C9.757 37.3888 8.75833 38.1774 7.75699 39.0568C6.75833 39.8454 5.75696 40.7248 5.15881 41.1617C4.52057 42.9607 6.68877 42.2065 7.658 42.4169C6.02911 44.732 5.81005 45.5436 5.78864 46.2701C5.96216 47.0024 6.33331 47.6495 7.44395 49.6818C6.04477 50.8222 4.89661 50.0612 3.94075 49.3969C2.9849 48.7325 2.22397 48.0738 1.0063 49.674C2.35735 50.1682 3.2704 52.2856 3.97785 54.7605C3.55589 55.8388 3.51038 57.3826 3.46489 58.9264C3.41941 60.4702 3.37399 62.014 3.1416 63.2796L4.7143 62.8715C5.65945 63.8991 6.60461 64.9268 7.74736 65.8693C6.39631 65.3751 5.24018 64.8866 3.88916 64.3923C4.85036 64.8751 7.14924 66.3062 8.8794 67.1752C11.1783 68.6063 10.7697 69.2305 10.5587 69.7696C10.3478 70.3087 9.94453 70.7513 12.8469 71.5639C12.8415 71.7455 12.8389 71.8364 12.6413 71.9214C14.7747 72.3479 17.6423 74.341 22.2774 75.9319C21.3002 75.994 20.3229 76.0561 19.1507 76.1124L16.6569 74.6756C16.6355 75.4021 17.7917 75.8906 19.3376 76.3906C20.8863 76.7998 22.8248 77.2205 24.1758 77.7147C27.6656 78.4538 27.1155 77.256 29.2543 77.5008C30.2182 77.8927 32.162 78.1318 32.9283 78.6088C35.4355 79.5916 31.9189 79.7607 30.5465 79.9929C34.0684 79.6422 34.8347 80.1193 40.6661 80.8364C40.6501 81.3813 40.06 81.5457 39.088 81.4261C40.4498 81.5571 41.622 81.5008 42.6073 81.1663L44.1398 82.1203C47.0368 83.1146 49.1916 82.8145 51.1515 82.5087C53.3063 82.2086 55.2689 81.812 59.1538 82.3809C57.979 82.5281 59.7305 82.6706 61.8693 82.9154C64.0107 83.0694 66.9317 83.2463 68.0905 83.644C65.359 83.6544 69.2119 85.3131 67.2466 85.8005C74.6535 86.0188 71.1958 84.19 76.269 84.1577ZM260.953 13.4325C260.759 13.4267 260.759 13.4267 260.564 13.421C260.566 13.3302 260.764 13.2451 260.767 13.1543C260.959 13.2509 260.956 13.3417 260.953 13.4325ZM254.324 13.328C254.129 13.3223 253.934 13.3165 253.739 13.3108L253.747 13.0384C254.342 12.6924 254.334 12.9648 254.324 13.328ZM240.29 12.9145C239.9 12.9031 239.51 12.8916 239.12 12.8801C239.32 12.7042 239.523 12.4375 240.308 12.2789C240.111 12.3639 240.298 12.6421 240.29 12.9145Z" fill="#6A6A6A"/>
<path d="M87.4324 16.5005C89.7821 16.2062 91.9369 15.906 92.7272 15.5657C92.1452 15.4577 86.6715 15.8418 87.4324 16.5005Z" fill="#6A6A6A"/>
<path d="M251.286 76.7711C251.093 76.6745 250.706 76.5722 250.122 76.555C250.113 76.8275 250.501 76.9298 251.286 76.7711Z" fill="#6A6A6A"/>
<path d="M158.043 83.1142C159.618 82.6152 160.214 82.2692 160.222 81.9967C159.047 82.1439 158.256 82.4842 158.043 83.1142Z" fill="#6A6A6A"/>
<path d="M118.983 84.597C118.786 84.6821 118.393 84.7614 118.198 84.7557C118.786 84.6821 118.981 84.6879 118.983 84.597Z" fill="#6A6A6A"/>
<path d="M33.4744 79.9886C34.449 80.0173 35.6132 80.2334 36.78 80.3587C37.9441 80.5748 39.1083 80.7909 40.0828 80.8196C39.1083 80.7909 37.9468 80.484 36.7853 80.1771C35.6212 79.9609 34.4543 79.8357 33.4744 79.9886Z" fill="#6A6A6A"/>
<path d="M275.354 74.2992L275.359 74.1176L273.584 74.7924L275.354 74.2992Z" fill="#6A6A6A"/>
<path d="M253.641 76.2951C254.626 75.9606 255.606 75.8076 256.589 75.5639C255.812 75.4501 252.674 75.994 253.641 76.2951Z" fill="#6A6A6A"/>
<path d="M184.499 79.0752L183.893 79.7845L185.471 79.1947L184.499 79.0752Z" fill="#6A6A6A"/>
<path d="M299.784 46.2968C299.394 46.2853 299.197 46.3703 298.999 46.4554C299.389 46.4669 299.782 46.3876 299.784 46.2968Z" fill="#6A6A6A"/>
<path d="M295.244 14.9891C295.439 14.9948 295.637 14.9098 296.029 14.8304C295.639 14.819 295.442 14.904 295.244 14.9891Z" fill="#6A6A6A"/>
<path d="M303.751 30.8728C303.946 30.8785 304.138 30.9758 304.333 30.9815L303.751 30.8728Z" fill="#6A6A6A"/>
<path d="M303.218 35.7646C303.805 35.691 304.601 35.169 303.041 35.123C302.838 35.3898 302.833 35.5714 303.218 35.7646Z" fill="#6A6A6A"/>
<path d="M233.402 8.34935C233.399 8.44018 233.592 8.53673 233.784 8.6333C233.597 8.35509 233.602 8.17345 233.402 8.34935Z" fill="#6A6A6A"/>
<path d="M256.616 8.48793C256.813 8.40285 257.211 8.14186 257.425 7.51184C256.827 7.94873 256.624 8.21546 256.616 8.48793Z" fill="#6A6A6A"/>
<path d="M267.341 8.6221C267.344 8.53127 267.537 8.53699 267.54 8.44617C267.54 8.44617 267.344 8.53127 267.341 8.6221Z" fill="#6A6A6A"/>
<path d="M290.257 12.1143C289.277 12.2672 288.697 12.0684 287.918 12.0454C288.7 11.9775 289.074 12.534 290.257 12.1143Z" fill="#6A6A6A"/>
<path d="M227.322 9.44226L227.317 9.62392L227.726 8.99963L227.322 9.44226Z" fill="#6A6A6A"/>
<path d="M232.806 8.69501C232.603 8.96174 232.403 9.13765 232.01 9.21698C232.202 9.31355 232.993 8.97322 232.806 8.69501Z" fill="#6A6A6A"/>
<path d="M250.137 9.84182L250.351 9.21179L249.945 9.74525L250.137 9.84182Z" fill="#6A6A6A"/>
<path d="M291.718 44.3354C291.683 41.8814 291.47 39.4332 291.081 37.0101C291.055 36.7867 291 36.423 290.922 35.9399C290.844 35.4567 290.709 34.8592 290.566 34.1553C290.246 32.7604 289.772 30.9758 289.122 28.96C288.761 27.7718 288.285 26.6216 287.7 25.526C286.952 24.2251 285.97 23.0739 284.803 22.1308C283.636 21.2148 282.349 20.4631 280.977 19.8969C279.665 19.3554 278.311 18.9211 276.928 18.5981C275.573 18.2759 274.268 18.0577 272.965 17.8421C272.315 17.7486 271.664 17.6447 271.027 17.5642L269.124 17.3434C266.619 17.0836 264.253 16.9745 262.17 16.9278C258.009 16.842 254.971 17.0135 254.126 17.068C255.611 17.1174 257.098 17.1953 258.583 17.294C255.008 17.346 251.929 17.5019 249.128 17.6655C246.327 17.8292 243.796 18.0214 241.365 18.185C236.499 18.5175 231.873 18.7513 225.876 19.1306L226.536 19.0344C224.781 19.0344 223.847 19.8137 204.431 19.5981V19.567C203.868 19.6185 203.303 19.6393 202.738 19.6293L205.778 19.6942C203.773 19.8475 202.025 20.0527 199.347 20.1878C198.777 20.1878 198.58 20.1202 198.522 20.0735C196.333 20.1748 194.143 20.3073 191.953 20.4294L189.925 20.3385C187.92 20.5644 188.864 20.9229 183.473 21.0424C184.497 21.1256 183.832 21.2113 182.997 21.3022C182.162 21.3931 181.158 21.4814 181.494 21.5308C181.234 21.5152 180.602 21.5074 180.102 21.497C178.506 21.6243 176.201 21.8892 174.121 22.1204C172.04 22.3802 170.171 22.6581 169.44 22.814L171.453 22.6971L173.585 22.575C174.365 22.5283 175.242 22.5049 176.131 22.4685L178.833 22.375L181.434 22.3256C183.083 22.2945 184.497 22.3049 185.335 22.3256C180.844 22.5439 184.154 22.4399 185.046 22.4815L185.34 22.388C188.032 22.2815 188.042 22.4711 189.389 22.4503C189.389 22.4347 189.345 22.4192 189.309 22.401L189.137 22.4374C189.009 22.4114 189.082 22.3828 189.225 22.3568C189.189 22.3179 189.311 22.2815 190.044 22.2503L189.904 22.2789C191.028 22.188 192.965 22.11 193.805 22.0867L193.831 22.2425C194.816 22.1155 195.808 22.0504 196.801 22.0477C197.467 22.0477 198.205 22.0269 198.978 22.0217C189.095 22.4295 179.262 23.0114 169.591 24.1622L165.503 23.0036H164.982L161.901 21.9464L150.978 21.1515L121.508 22.2321C113.658 22.3308 105.804 22.4495 97.9467 22.588C88.3938 22.9569 78.8435 23.3742 69.2958 23.8401C64.5237 24.079 59.7464 24.2972 54.9327 24.6557C50.089 24.9868 45.2655 25.566 40.4812 26.391C39.805 26.5702 39.1262 26.7312 38.4527 26.926L36.4346 27.5027C33.4072 28.0401 30.4284 28.822 27.5275 29.8406C25.9259 30.3822 24.3673 31.0429 22.8647 31.8174C21.2354 32.6484 19.7328 33.7068 18.402 34.9605C17.0168 36.2944 15.9093 37.8888 15.1435 39.6519C14.4125 41.366 13.9646 43.1872 13.8172 45.0445C13.6749 46.7816 13.7002 48.5284 13.8926 50.2606C14.0616 51.9387 14.3399 53.5466 14.6493 55.0948L14.9614 55.2896C15.3827 57.0041 15.5778 57.7885 15.6636 58.2691C15.7494 58.7497 15.7468 58.9133 15.8456 59.3315C16.1076 60.3211 16.4556 61.2859 16.8859 62.2149C17.169 62.8022 17.5332 63.347 17.9677 63.8332C18.4693 64.3823 19.0771 64.8241 19.7543 65.1321C20.3623 65.3986 21.0064 65.5737 21.6658 65.6516C22.1941 65.7134 22.7254 65.7463 23.2573 65.7503L25.9594 65.7841L36.7519 65.9088L47.5236 66.0308L50.21 66.0594H50.6573H51.773C51.773 66.0594 51.8016 66.0594 51.7964 66.0594L51.7704 66.075L51.721 66.1062L51.6248 66.1737C51.4623 66.2904 51.3124 66.4236 51.1775 66.5711C51.1411 66.6075 51.1098 66.6465 51.0734 66.6854L51.024 66.7452L50.9382 66.8569L50.6781 67.1998C50.5377 67.3712 50.3973 67.5868 50.262 67.7816L49.8511 68.3817C49.7211 68.5817 49.6067 68.7869 49.4845 68.9895C49.0275 69.7723 48.6159 70.5806 48.2518 71.4105L47.6848 72.6262C47.6848 72.6262 46.876 73.7458 50.3791 73.9666C50.8238 73.9926 51.245 74.1147 51.7001 74.1744C52.1553 74.2342 52.6468 74.2809 53.1305 74.3173L55.0784 74.4809L56.7011 74.5901C57.7804 74.668 58.8596 74.7095 59.9337 74.7589C61.0077 74.8082 62.0792 74.8264 63.1454 74.8628C64.2117 74.8992 65.2779 74.8992 66.3364 74.9018C74.8169 74.9407 83.0245 74.4991 90.8757 74.2368C92.254 74.2523 95.0366 74.177 97.7387 74.0913L101.556 73.9848C102.69 73.9848 103.619 73.9848 104.157 74.0082C113.415 73.4003 123.253 73.3068 132.55 73.2886L132.197 73.3198L136.576 73.2549C136.763 73.2757 136.784 73.3068 136.644 73.325C141.585 73.0834 149.371 73.325 155.425 73.4471L155.072 73.4757C172.732 73.5718 189.779 73.6159 206.805 73.3354L213.19 73.2237L219.577 73.0652L222.776 72.9873L225.977 72.8808L232.395 72.6678L238.837 72.3898C240.99 72.3041 243.146 72.208 245.315 72.0859C249.653 71.8547 254.027 71.5664 258.443 71.0858C262.727 70.7086 266.983 70.0622 271.186 69.1506C271.732 69.0389 272.278 68.8908 272.824 68.7739C273.37 68.6571 273.919 68.5142 274.468 68.3713C275.56 68.07 276.665 67.792 277.76 67.4414C278.309 67.2725 278.863 67.1141 279.412 66.9218C279.96 66.7296 280.507 66.5478 281.058 66.3633C282.219 65.9806 283.355 65.5251 284.459 64.9996C285.702 64.4218 286.852 63.6628 287.871 62.7474C288.428 62.2421 288.922 61.6727 289.343 61.0512C289.458 60.8979 289.549 60.7265 289.65 60.5628C289.752 60.3992 289.845 60.2277 289.931 60.0563C290.1 59.7191 290.249 59.3722 290.376 59.0172C290.798 57.7393 291.06 56.4139 291.156 55.0714C291.208 54.4844 291.263 53.8947 291.317 53.3076C291.372 52.7206 291.411 52.1283 291.46 51.5386C291.65 49.1852 291.759 46.7746 291.718 44.3354Z" fill="#9E52FF"/>
</svg>
